<svg xmlns="http://www.w3.org/2000/svg" width="36" height="36" viewBox="0 0 36 36">
    <g fill="#000" fill-rule="evenodd">
        <path d="M12.97 28.915c-.25.046-.358.164-.327.35.031.188.172.25.421.188.25-.062.36-.172.328-.328-.03-.171-.171-.242-.421-.21zM11.636 29.102c-.25 0-.374.086-.374.258 0 .202.132.288.398.257.25 0 .374-.086.374-.257 0-.203-.132-.29-.398-.258zM9.81 29.031c-.062.172.04.289.304.352.235.093.383.046.445-.14.047-.172-.054-.297-.304-.375-.234-.063-.382-.009-.445.163z"/>
        <path d="M33.984 1.978C32.664.66 31.077 0 29.219 0H6.743C4.886 0 3.297.66 1.978 1.978.66 3.298 0 4.886 0 6.743v22.476c0 1.858.66 3.446 1.978 4.765 1.32 1.319 2.908 1.978 4.765 1.978h5.244c.343 0 .601-.012.773-.035.171-.023.343-.125.515-.305.172-.179.257-.44.257-.784l-.012-1.592a323.52 323.52 0 0 1-.011-2.412l-.539.094c-.343.062-.776.09-1.3.082a9.998 9.998 0 0 1-1.626-.164 3.648 3.648 0 0 1-1.57-.702 2.972 2.972 0 0 1-1.03-1.44l-.233-.539c-.156-.358-.402-.757-.738-1.193-.335-.438-.675-.734-1.018-.89l-.164-.117a1.722 1.722 0 0 1-.304-.282 1.3 1.3 0 0 1-.211-.327c-.047-.11-.008-.2.117-.27s.351-.105.679-.105l.468.07c.312.063.698.25 1.16.562.46.312.838.718 1.135 1.217.359.64.791 1.128 1.299 1.463.507.336 1.018.504 1.533.504.515 0 .96-.039 1.335-.117a4.661 4.661 0 0 0 1.053-.351c.14-1.046.523-1.85 1.148-2.412-.89-.094-1.69-.234-2.4-.421a9.564 9.564 0 0 1-2.2-.914 6.301 6.301 0 0 1-1.886-1.568c-.5-.625-.91-1.445-1.229-2.459-.32-1.015-.48-2.185-.48-3.512 0-1.888.617-3.496 1.85-4.823-.578-1.42-.523-3.012.164-4.776.452-.14 1.124-.035 2.013.316.89.352 1.542.652 1.955.901.414.25.746.46.995.633a16.619 16.619 0 0 1 4.496-.609c1.545 0 3.043.203 4.495.609l.89-.562a12.595 12.595 0 0 1 2.154-1.03c.827-.312 1.46-.398 1.897-.258.702 1.764.765 3.356.187 4.776 1.233 1.327 1.85 2.935 1.85 4.823 0 1.327-.16 2.502-.48 3.524-.32 1.022-.733 1.842-1.241 2.459a6.547 6.547 0 0 1-1.896 1.557 9.551 9.551 0 0 1-2.201.912c-.71.188-1.51.329-2.4.422.811.703 1.217 1.81 1.217 3.325v5.596c0 .265.039.48.117.643a.647.647 0 0 0 .374.34c.173.062.324.101.457.117.133.015.324.023.574.023h5.244c1.858 0 3.446-.66 4.764-1.978 1.32-1.32 1.979-2.908 1.979-4.765V6.743c0-1.857-.66-3.446-1.978-4.765z"/>
        <path d="M7.117 26.175c-.109.078-.093.203.047.375.157.156.281.18.375.07.11-.078.094-.203-.047-.375-.156-.14-.28-.164-.375-.07zM6.345 25.59c-.047.11.008.203.164.281.125.078.226.063.304-.047.047-.109-.008-.203-.164-.281-.156-.047-.257-.031-.304.047zM7.843 27.089c-.14.077-.14.218 0 .42.14.204.273.259.398.165.14-.11.14-.258 0-.445-.124-.203-.257-.25-.398-.14zM8.663 28.142c-.14.125-.11.273.094.445.187.187.343.21.468.07.125-.125.094-.273-.094-.445-.187-.187-.343-.21-.468-.07z"/>
    </g>
</svg>
