<svg xmlns="http://www.w3.org/2000/svg" width="9" height="9" viewBox="0 0 9 9">
    <g fill="none" fill-rule="evenodd">
        <path fill="#737373" fill-rule="nonzero" d="M4.25 3.156L7.243.163c.25-.25.697-.208 1 .095.302.302.344.749.094.999L5.344 4.25l2.993 2.993c.25.25.208.697-.095 1-.302.302-.749.344-.999.094L4.25 5.344 1.257 8.337c-.25.25-.697.208-1-.095-.302-.302-.344-.749-.094-.999L3.156 4.25.163 1.257c-.25-.25-.208-.697.095-1 .302-.302.749-.344.999-.094L4.25 3.156z"/>
        <path d="M-5-5h18v18H-5z"/>
    </g>
</svg>
