<svg xmlns="http://www.w3.org/2000/svg" xmlns:xlink="http://www.w3.org/1999/xlink" width="82" height="82" viewBox="0 0 82 82">
    <defs>
        <circle id="a" cx="40" cy="40" r="40"/>
    </defs>
    <g fill="none" fill-rule="evenodd" transform="translate(1 1)">
        <mask id="b" fill="#fff">
            <use xlink:href="#a"/>
        </mask>
        <use fill="#D8D8D8" fill-rule="nonzero" stroke="#979797" xlink:href="#a"/>
        <g mask="url(#b)">
            <g transform="translate(2 12)">
                <path fill="#EA81BD" d="M17.462 37.875c0 1.864-3.714 3.374-8.292 3.374-4.58 0-8.294-1.51-8.294-3.374 0-1.863 7.289-7.366 11.869-7.366s4.717 5.503 4.717 7.366z"/>
                <path fill="#D363A9" d="M17.462 37.875c0 1.864-3.714 3.374-8.292 3.374-4.58 0-8.294-1.51-8.294-3.374 0-1.863 7.676-1.085 12.256-1.085s4.33-.778 4.33 1.085z"/>
                <path fill="#33363A" fill-rule="nonzero" d="M9.17 42.126c-4.445 0-9.17-1.49-9.17-4.251 0-2.624 8.002-8.243 12.745-8.243 2.089 0 5.594 1.07 5.594 8.243 0 2.761-4.724 4.251-9.169 4.251zm3.575-10.74c-4.267 0-10.847 5.177-10.991 6.499 0 1.008 2.889 2.487 7.416 2.487 4.527 0 7.416-1.479 7.416-2.497-.001-4.306-1.293-6.489-3.84-6.489z"/>
                <path fill="#EA81BD" d="M58.19 37.875c0 1.864 3.713 3.374 8.293 3.374 4.58 0 8.292-1.51 8.292-3.374 0-1.863-7.288-7.366-11.868-7.366s-4.716 5.503-4.716 7.366z"/>
                <path fill="#D363A9" d="M58.19 37.875c0 1.864 3.713 3.374 8.293 3.374 4.58 0 8.292-1.51 8.292-3.374 0-1.863-7.675-1.085-12.255-1.085-4.58 0-4.33-.778-4.33 1.085z"/>
                <path fill="#33363A" fill-rule="nonzero" d="M66.483 42.126c-4.445 0-9.17-1.49-9.17-4.25 0-7.173 3.505-8.244 5.593-8.244 4.744 0 12.746 5.62 12.746 8.243 0 2.761-4.724 4.251-9.169 4.251zm-3.576-10.74c-2.547 0-3.839 2.183-3.839 6.49 0 1.017 2.889 2.496 7.416 2.496 4.526 0 7.415-1.479 7.415-2.497-.145-1.312-6.725-6.489-10.992-6.489z"/>
                <g transform="translate(10.523 47.938)">
                    <ellipse cx="14.107" cy="5.152" fill="#EA81BD" rx="12.66" ry="3.824"/>
                    <path fill="#D363A9" d="M26.767 5.152c0 2.11-5.668 0-12.66 0s-12.66 2.11-12.66 0c0-2.113 5.668-3.824 12.66-3.824s12.66 1.711 12.66 3.824z"/>
                    <path fill="#33363A" fill-rule="nonzero" d="M14.107 9.853C7.38 9.853.571 8.238.571 5.152.57 2.065 7.38.45 14.107.45c6.727 0 13.537 1.614 13.537 4.7 0 3.087-6.81 4.702-13.537 4.702zm0-7.648c-7.624 0-11.783 1.946-11.783 2.947 0 1 4.16 2.947 11.783 2.947 7.624 0 11.783-1.947 11.783-2.947s-4.16-2.947-11.783-2.947z"/>
                </g>
                <g transform="translate(37.415 47.938)">
                    <ellipse cx="13.607" cy="5.152" fill="#EA81BD" rx="12.66" ry="3.824"/>
                    <path fill="#D363A9" d="M.947 5.152c0 2.11 5.668 0 12.66 0 6.991 0 12.66 2.11 12.66 0 0-2.113-5.669-3.824-12.66-3.824-6.992 0-12.66 1.711-12.66 3.824z"/>
                    <path fill="#33363A" fill-rule="nonzero" d="M13.607 9.853C6.88 9.853.07 8.238.07 5.152.07 2.065 6.88.45 13.607.45c6.727 0 13.536 1.614 13.536 4.7 0 3.087-6.809 4.702-13.536 4.702zm0-7.648c-7.624 0-11.783 1.946-11.783 2.947 0 1 4.159 2.947 11.783 2.947s11.782-1.947 11.782-2.947-4.158-2.947-11.782-2.947z"/>
                </g>
                <path fill="#9E3256" d="M11.802 1.2c-3.306 4.544-4 10.738-1.246 16.072 2.753 5.336 8.203 8.358 13.823 8.294 3.307-4.543 4-10.736 1.246-16.07C22.87 4.16 17.423 1.137 11.802 1.2z"/>
                <path fill="#FFCAE8" d="M11.802 1.2c-3.306 4.544 2.737 9.79 5.49 15.123 2.754 5.336 1.468 9.307 7.088 9.243 3.306-4.543 4-10.736 1.245-16.07C22.871 4.16 17.423 1.137 11.802 1.2z"/>
                <path fill="#EFA3CC" d="M11.802 1.2c-3.306 4.544 2.737 9.79 5.49 15.123 2.754 5.336 1.468 9.307 7.088 9.243 3.306-4.543 1.871-6.847-.883-12.182-2.754-5.336-6.074-12.246-11.695-12.183z"/>
                <path fill="#33363A" fill-rule="nonzero" d="M26.404 9.093C23.576 3.615 17.984.24 11.792.323a.878.878 0 0 0-.699.362c-3.64 5.002-4.144 11.511-1.316 16.99 2.798 5.422 8.311 8.77 14.421 8.77l.191-.002a.878.878 0 0 0 .7-.36c3.639-5.002 4.144-11.512 1.315-16.99zm-.077 5.453c.005.034.006.068.01.102.08.603.124 1.209.127 1.814 0 .168-.01.336-.015.504-.005.151-.003.303-.013.454-.013.196-.037.39-.056.585-.013.123-.02.247-.036.369-.075.578-.19 1.151-.336 1.718-.014.055-.024.111-.039.166-.081.3-.173.6-.274.895-.003.01-.005.019-.009.028a14.52 14.52 0 0 1-.342.898l-.003.01a14.67 14.67 0 0 1-1.414 2.595c-2.832-.088-3.24-1.413-4.084-4.16-.416-1.356-.889-2.893-1.771-4.605-.78-1.512-1.81-3.005-2.804-4.45-2.46-3.573-4.6-6.68-2.997-9.39.271.005.54.022.81.042.056.004.114.004.171.01.28.023.558.06.835.1.048.006.096.01.144.017.283.044.562.099.84.159.04.009.08.014.12.023.295.066.587.143.875.226.022.007.044.011.065.017.28.083.556.177.83.276l.088.029c.268.1.533.21.795.325.032.014.065.025.096.04.254.113.502.237.748.365.038.02.077.036.115.056.24.127.474.265.706.405.041.026.084.047.126.072.21.13.413.27.616.411.06.042.123.08.182.122.202.145.397.3.592.455.056.045.114.085.17.13.18.15.353.308.527.466.064.058.13.112.194.171.16.15.31.31.462.468.072.074.148.143.218.22.123.133.24.274.357.412.093.108.189.212.279.322.115.142.22.291.33.438.086.115.176.225.258.343.17.24.329.488.484.74.017.03.037.056.055.086a14.62 14.62 0 0 1 1.968 5.52zM11.336 16.87a14.359 14.359 0 0 1-1.029-10.673c.646 2.088 2.09 4.197 3.517 6.269.963 1.4 1.96 2.847 2.69 4.26.81 1.571 1.258 3.029 1.654 4.315.307 1 .603 1.951 1.038 2.772a14.366 14.366 0 0 1-7.87-6.943z"/>
                <path fill="#9E3256" d="M63.85 1.2c3.307 4.544 4 10.738 1.246 16.072-2.753 5.336-8.202 8.358-13.823 8.294-3.307-4.543-4-10.736-1.246-16.07C52.781 4.16 58.23 1.137 63.85 1.2z"/>
                <path fill="#FFCAE8" d="M63.85 1.2c3.307 4.544-2.736 9.79-5.49 15.123-2.753 5.336-1.467 9.307-7.087 9.243-3.307-4.543-4-10.736-1.246-16.07C52.781 4.16 58.23 1.137 63.85 1.2z"/>
                <path fill="#EFA3CC" d="M63.85 1.2c3.307 4.544-2.736 9.79-5.49 15.123-2.753 5.336-1.467 9.307-7.087 9.243-3.307-4.543-1.872-6.847.882-12.182C54.908 8.048 58.23 1.138 63.85 1.201z"/>
                <path fill="#33363A" fill-rule="nonzero" d="M64.56.685a.878.878 0 0 0-.7-.361 16.151 16.151 0 0 0-14.611 8.769c-2.829 5.479-2.325 11.989 1.316 16.99a.878.878 0 0 0 .699.36l.19.001c6.11 0 11.624-3.347 14.421-8.77 2.828-5.477 2.324-11.987-1.316-16.99zM51.293 9.028c0-.001 0-.001 0 0 .17-.283.35-.559.539-.827l.01-.015c.374-.53.78-1.032 1.215-1.502l.011-.01c.216-.233.44-.459.67-.676l.009-.009c.23-.217.468-.427.712-.628l.02-.014c.24-.198.488-.389.741-.57.027-.02.056-.037.083-.056.234-.166.471-.326.714-.477.044-.027.09-.05.133-.076.23-.14.46-.276.698-.402.055-.03.113-.054.169-.082.228-.118.458-.234.693-.34.07-.031.144-.057.214-.087.224-.096.448-.192.677-.277.083-.03.169-.055.252-.084.22-.076.44-.154.665-.22.085-.025.174-.044.26-.068.225-.062.45-.125.68-.176.088-.02.18-.033.268-.05.23-.048.459-.096.692-.132.088-.013.177-.02.266-.032.237-.032.474-.065.714-.086.074-.006.15-.006.224-.012.252-.018.504-.034.758-.04 1.603 2.712-.536 5.818-2.996 9.392-.995 1.444-2.023 2.938-2.803 4.45-.883 1.71-1.355 3.248-1.772 4.603-.844 2.748-1.25 4.073-4.084 4.16a14.645 14.645 0 0 1-1.413-2.594c-.01-.023-.017-.046-.027-.07a14.365 14.365 0 0 1 .522-12.123c.152-.297.315-.588.486-.87zm13.022 7.842a14.367 14.367 0 0 1-7.869 6.943c.435-.82.731-1.771 1.039-2.772.394-1.286.842-2.743 1.654-4.315.73-1.413 1.725-2.86 2.689-4.26 1.426-2.072 2.87-4.18 3.516-6.27a14.366 14.366 0 0 1-1.029 10.674z"/>
                <path fill="#FFCAE8" d="M66.595 32.222c0 12.088-12.88 21.889-28.769 21.889-15.888 0-28.768-9.802-28.768-21.889 0-12.09 12.88-26.576 28.768-26.576s28.769 14.486 28.769 26.576z"/>
                <path fill="#EFA3CC" d="M66.595 32.222c0 12.088-12.88 21.889-28.769 21.889-15.888 0-28.768-9.802-28.768-21.889 0-12.09 12.88-20.42 28.768-20.42s28.769 8.33 28.769 20.42z"/>
                <path fill="#EA81BD" d="M66.595 32.222c0 12.088-12.88 21.889-28.769 21.889-15.888 0-28.768-9.802-28.768-21.889 0-12.09 3.66 10.722 28.768 10.722s28.769-22.813 28.769-10.722z"/>
                <path fill="#33363A" fill-rule="nonzero" d="M37.826 54.988c-16.346 0-29.645-10.213-29.645-22.766 0-12.435 13.224-27.453 29.645-27.453 16.422 0 29.646 15.018 29.646 27.453 0 12.553-13.3 22.766-29.646 22.766zm0-48.465c-15.45 0-27.891 14.059-27.891 25.7 0 11.585 12.512 21.01 27.891 21.01 15.38 0 27.892-9.425 27.892-21.01 0-11.642-12.441-25.7-27.892-25.7z"/>
                <path fill="#14A594" d="M28.378 30.96a4.706 4.706 0 0 1-4.708 4.707 4.706 4.706 0 1 1 0-9.413c2.6 0 4.708 2.106 4.708 4.706z"/>
                <circle cx="21.33" cy="29.43" r="1.918" fill="#FFF"/>
                <path fill="#33363A" fill-rule="nonzero" d="M23.67 25.377a5.579 5.579 0 0 0-4.754 2.67 5.54 5.54 0 0 0-.83 2.913 5.59 5.59 0 0 0 5.584 5.584 5.59 5.59 0 0 0 5.585-5.584 5.59 5.59 0 0 0-5.585-5.583zm0 9.413a3.834 3.834 0 0 1-3.535-2.358c.403-.011.892-.117 1.443-.232.197-.018.386-.054.569-.111a8.53 8.53 0 0 1 1.523-.156c1.411 0 2.673.475 3.536.499a3.837 3.837 0 0 1-3.536 2.358z"/>
                <circle cx="21.329" cy="29.431" r="1.041" fill="#FFF"/>
                <path fill="#14A594" d="M56.689 30.96a4.706 4.706 0 0 1-4.707 4.707 4.706 4.706 0 1 1 0-9.414c2.6 0 4.707 2.107 4.707 4.707z"/>
                <circle cx="49.641" cy="29.43" r="1.918" fill="#FFF"/>
                <path fill="#33363A" fill-rule="nonzero" d="M51.982 25.377a5.579 5.579 0 0 0-4.754 2.67 5.54 5.54 0 0 0-.83 2.913 5.59 5.59 0 0 0 5.584 5.584 5.59 5.59 0 0 0 5.584-5.584 5.59 5.59 0 0 0-5.584-5.583zm0 9.413a3.835 3.835 0 0 1-3.535-2.358c.402-.011.892-.117 1.443-.232.196-.018.385-.054.568-.11.478-.087.99-.157 1.524-.157 1.41 0 2.673.475 3.535.499a3.834 3.834 0 0 1-3.535 2.358z"/>
                <circle cx="49.641" cy="29.431" r="1.041" fill="#FFF"/>
                <path fill="#FFCAE8" d="M42.248 32.046c0 .592-1.99.698-4.447.698-2.455 0-4.446-.107-4.446-.698 0-.59 1.99-2.136 4.446-2.136 2.456 0 4.447 1.546 4.447 2.136z"/>
                <path fill="#9E3256" d="M32.626 36.79a5.2 5.2 0 0 0 10.401 0H32.626z"/>
                <path fill="#33363A" fill-rule="nonzero" d="M37.826 42.867a6.084 6.084 0 0 1-6.078-6.077c0-.484.392-.877.877-.877h10.402c.484 0 .876.393.876.877a6.084 6.084 0 0 1-6.077 6.077zm-4.235-5.2a4.332 4.332 0 0 0 4.235 3.447 4.332 4.332 0 0 0 4.235-3.447h-8.47z"/>
                <circle cx="37.826" cy="12.432" r="11.23" fill="#FFCAE8"/>
                <circle cx="37.826" cy="16.877" r="11.23" fill="#EFA3CC"/>
                <path fill="#33363A" d="M37.826.324c-3.12 0-5.961 1.197-8.11 3.144-.06.033-.122.057-.174.104-4.875 4.467-5.207 12.069-.742 16.946a9.715 9.715 0 0 0 7.218 3.17 9.7 9.7 0 0 0 6.59-2.567 7.936 7.936 0 0 0 2.585-5.543 7.941 7.941 0 0 0-2.093-5.75 6.579 6.579 0 0 0-9.282-.406 5.443 5.443 0 0 0-.336 7.676.876.876 0 1 0 1.293-1.185 3.686 3.686 0 0 1 .228-5.198 4.823 4.823 0 0 1 6.804.299 6.2 6.2 0 0 1 1.634 4.488 6.19 6.19 0 0 1-2.018 4.326 7.973 7.973 0 0 1-5.767 2.1 7.97 7.97 0 0 1-5.563-2.595 10.19 10.19 0 0 1-2.672-6.623c.03-.088.05-.181.05-.279 0-5.71 4.644-10.354 10.354-10.354 5.708 0 10.353 4.645 10.353 10.354a.877.877 0 1 0 1.753 0C49.933 5.756 44.502.324 37.826.324z"/>
            </g>
        </g>
    </g>
</svg>
