<svg xmlns="http://www.w3.org/2000/svg" width="36" height="36" viewBox="0 0 36 36">
    <path fill="#475993" fill-rule="evenodd" d="M31.133 0H4.849A4.849 4.849 0 0 0 0 4.849v26.284A4.849 4.849 0 0 0 4.85 35.98h12.963l.022-12.858h-3.34a.788.788 0 0 1-.789-.785l-.016-4.144a.788.788 0 0 1 .789-.791h3.334v-4.005c0-4.648 2.838-7.178 6.984-7.178h3.402c.435 0 .788.353.788.788v3.495a.788.788 0 0 1-.788.788h-2.087c-2.255 0-2.691 1.072-2.691 2.645v3.467h4.954c.472 0 .838.412.782.88l-.49 4.145a.788.788 0 0 1-.784.696h-4.44L23.42 35.98h7.713a4.848 4.848 0 0 0 4.848-4.848V4.849A4.849 4.849 0 0 0 31.133 0z"/>
</svg>
