<svg xmlns="http://www.w3.org/2000/svg" xmlns:xlink="http://www.w3.org/1999/xlink" width="777" height="734" viewBox="0 0 777 734">
    <defs>
        <path id="a" d="M0 0h777v736H0z"/>
        <path id="c" d="M316.678.075v111.762l-51.297 51.28c-56.088 56.076-129.578 84.109-203.094 84.103a288.73 288.73 0 0 1-62.163-6.77c57.286-9.376 112.268-36.145 156.445-80.31l37.424-37.414c1.339-.388 2.384-.698 2.944-.867h.56l-.074-.273c.083-.362.333-1.424.672-2.963"/>
        <radialGradient id="d" cx="47.622%" cy="35.58%" r="56.084%" fx="47.622%" fy="35.58%" gradientTransform="matrix(.4298 .83511 -.95437 .80454 .611 -.328)">
            <stop offset="0%" stop-color="#FFF9F8"/>
            <stop offset="100%" stop-color="#FBAB94"/>
        </radialGradient>
        <path id="f" d="M773.62 0H10.414C4.674 0 .018 6.756.018 15.092v711.816C.018 735.244 4.673 742 10.414 742H773.62c5.743 0 10.398-6.756 10.398-15.092V15.092C784.018 6.756 779.363 0 773.62 0"/>
        <radialGradient id="g" cx="30.918%" cy="68.55%" r="33.477%" fx="30.918%" fy="68.55%" gradientTransform="scale(-.97483 -1) rotate(-46.509 -1.6 .729)">
            <stop offset="0%" stop-color="#D0D6EB"/>
            <stop offset="27.15%" stop-color="#BFC7E1"/>
            <stop offset="64.482%" stop-color="#9AA5CE"/>
            <stop offset="100%" stop-color="#6171B0"/>
        </radialGradient>
    </defs>
    <g fill="none" fill-rule="evenodd">
        <mask id="b" fill="#fff">
            <use xlink:href="#a"/>
        </mask>
        <use fill="#D8D8D8" fill-opacity="0" fill-rule="nonzero" xlink:href="#a"/>
        <g mask="url(#b)">
            <g transform="matrix(-1 0 0 1 317 476)">
                <mask id="e" fill="#fff">
                    <use xlink:href="#c"/>
                </mask>
                <path fill="url(#d)" d="M312.486-.167H4.732C2.417-.167.54 2.082.54 4.857v236.965c0 2.776 1.877 5.025 4.192 5.025h307.754c2.315 0 4.192-2.25 4.192-5.025V4.857c0-2.775-1.877-5.024-4.192-5.024" mask="url(#e)"/>
            </g>
            <g transform="matrix(-1 0 0 1 777 -8)">
                <mask id="h" fill="#fff">
                    <use xlink:href="#f"/>
                </mask>
                <path fill="url(#g)" d="M1250.413-476.564c-144.206-140.581-378.016-140.581-522.223 0L108.158 127.858c-144.21 140.58-144.21 368.502 0 509.08v.003c144.207 140.577 378.017 140.577 522.224 0l620.031-604.426c144.207-140.58 144.207-368.502 0-509.08" mask="url(#h)"/>
            </g>
            <g transform="translate(46 74)">
                <path fill="#ED9E95" d="M.306 333.146c0 4.21 27.801 7.625 62.097 7.625 34.295 0 62.097-3.415 62.097-7.625 0-4.212-27.802-7.625-62.097-7.625-34.296 0-62.097 3.413-62.097 7.625"/>
                <path fill="#392F68" d="M118.853 203.591l10.216 8.106a1.213 1.213 0 0 0 1.745-.25l18.263-25.816c.37-.523.27-1.243-.228-1.646l-13.543-10.924a1.213 1.213 0 0 0-1.757.249l-18.166 25.962a1.215 1.215 0 0 0 .221 1.632l3.249 2.687"/>
                <path fill="#272240" d="M119.929 202.688l9.395 7.455a1.117 1.117 0 0 0 1.605-.231l16.793-23.738a1.117 1.117 0 0 0-.211-1.514l-12.452-10.045a1.118 1.118 0 0 0-1.617.229l-16.704 23.874a1.117 1.117 0 0 0 .204 1.5l2.987 2.47"/>
                <path fill="#392D6A" d="M73.007 141.949s20.28 5.441 20.032 18.548c-.247 13.107-5.811 12.365-5.811 12.365s-5.812 25.474-1.608 41.796c4.204 16.322-42.29 18.301-45.011 0-2.72-18.301 7.667-28.44 6.678-36.601-.989-8.162-3.525-26.216 4.42-33.388 7.945-7.172 21.3-2.72 21.3-2.72"/>
                <path fill="#EEC24D" d="M74.059 195.059s7.48-.68 12.179 7.605c4.699 8.284 5.689 8.902 5.689 8.902s-5.318 5.442-9.646 4.947c0 0 .371 4.596-1.854 11.139-2.226 6.543-2.721 4.813-2.721 4.813s-9.46 3.462-16.322-.248c0 0-.989-7.666-6.554-17.065 0 0-1.607 4.947-1.113 7.42 0 0-6.065.8-9.151-2.102 0 0 1.485-26.709 20.96-26.524l8.533 1.113"/>
                <path fill="#272240" d="M43.947 331.018s-10.294 4.003-15.823 4.194c0 0-6.481-.572 10.295-8.198 0 0 2.669 2.478 5.72 1.335l-.192 2.669M65.717 331.018s10.295 4.003 15.823 4.194c0 0 6.481-.572-10.295-8.198 0 0-2.669 2.478-5.719 1.335l.191 2.669"/>
                <path fill="#E7895A" d="M86.856 164.083s3.339 14.097-10.015 20.032c-4.823 2.597-13.726 1.114-19.29-5.564 0 0-8.162-2.411-5.195-8.532 2.041-3.525 6.864.185 6.864.185s10.015-.557 13.911-14.097c0 0 9.089 7.048 13.725 7.976"/>
                <path fill="#E7895A" d="M74.059 195.059s-1.485-2.901 0-9.983c0 0-3.1.352-6.976-.375 0 0 .298 7.39-1.557 9.245 0 0 2.597 11.315 8.533 10.387 2.782-1.299 0-9.274 0-9.274"/>
                <path fill="#392F68" d="M77.706 232.465s12.365 17.558 6.925 44.763c-5.441 27.204-12.365 51.44-12.365 51.44s-3.339 1.236-6.74 0c0 0 2.411-27.204 0-51.44 0 0 8.63-23.099 5.75-43.295 0 0 2.968-.232 6.43-1.468"/>
                <path fill="#3F3C7B" d="M61.384 232.217s-12.861 12.3-13.603 37.558C47.04 295.034 36.9 327.432 36.9 327.432s3.709 2.336 7.666 1.786c0 0 13.726-35.42 20.96-51.99 0 0 9.707-25.505 5.75-43.295 0 0-5.935.757-9.892-1.716"/>
                <path fill="#E7895A" d="M89.126 213.938s7.87 11.107 14.301 1.709c6.429-9.397 10.881-16.322 10.881-16.322s-.185-7.327 5.472-6.399c5.658.928 5.286 4.637 3.709 4.729-1.576.093-3.617-.926-4.544-.556-.927.371 1.205 2.69-.092 6.492l2.782 2.04s-1.485 1.948-5.843 2.69c0 0-8.161 16.415-13.076 18.734-4.916 2.318-12.211 1.638-20.435-10.542 0 0 4.043-.202 6.845-2.575M52.352 222.664s-1.355 28.473-1.479 34.531c-.124 6.06-6.43 7.42-8.532 5.565-2.103-1.855 1.607-3.462 2.721-3.586 1.112-.123-2.35-.371-1.485-3.957.866-3.586 2.968-3.957 2.474-7.296-.495-3.338-2.103-14.838-1.485-27.451 0 0 2.621 2.142 7.786 2.194"/>
                <path fill="#B86F4F" d="M78.628 169.238s1.232 2.569 2.876 3.596c1.644 1.027.103 3.288-1.027 3.082l-1.13-.205-.719-6.473M75.771 168.108c-1.08.58-2.095.974-3.13.934a5.183 5.183 0 0 1-1.552-.282c-.267-.072-.516-.206-.793-.298-.267-.115-.526-.252-.828-.354.162.261.355.504.563.739.237.196.457.432.74.582.533.357 1.193.53 1.854.562 1.349.032 2.612-.767 3.146-1.883M83.765 166.053c-.477.695-.864 1.262-1.343 1.472-.234.117-.513.17-.852.186l-.538-.002c-.19-.013-.384-.029-.607-.012.258.34.6.601 1.019.745.414.154.934.149 1.394-.063a1.83 1.83 0 0 0 .91-1.059c.141-.42.162-.857.017-1.267M79.963 177.506c-1.388.4-2.694.723-3.991.703-.649.014-1.277-.124-1.897-.319-.637-.185-1.201-.548-1.85-.898.36.621.864 1.217 1.541 1.571a4.437 4.437 0 0 0 2.191.595 5.669 5.669 0 0 0 2.194-.435c.68-.285 1.316-.675 1.812-1.217"/>
                <path fill="#ED9E95" d="M20.753 348.934c0 .86 6.609 1.557 14.763 1.557 8.153 0 14.762-.697 14.762-1.557 0-.861-6.609-1.558-14.762-1.558-8.154 0-14.763.697-14.763 1.558M95.554 322.413c0 .859 6.609 1.557 14.762 1.557 8.154 0 14.763-.698 14.763-1.557 0-.86-6.609-1.558-14.763-1.558-8.153 0-14.762.698-14.762 1.558"/>
                <path fill="#755D98" d="M103.694 322.813s-6.034-9.743-.502-14.991c4.067-2.929 8.705 2.197 11.268-.732 2.563-2.93-9.154-12.571-5.37-17.453 3.783-4.883 11.35-5.249 15.744-1.099 4.395 4.15-2.685 27.418-8.177 34.275 0 0-7.252.833-12.963 0"/>
                <path fill="#392D6A" d="M109.834 323.183c2.306-2.479 4.285-5.261 5.951-8.223 1.67-2.957 2.948-6.177 3.5-9.568.299-1.695.246-3.433.065-5.143-.286-1.675-.563-3.357-1.055-4.989-.472-1.635-1.044-3.245-1.793-4.775-.774-1.504-1.667-3.006-2.97-4.102 1.195 1.2 2.008 2.707 2.678 4.239.679 1.535 1.189 3.14 1.596 4.768.408 1.628.699 3.284.95 4.944.153 1.648.186 3.317-.121 4.958-.481 3.3-1.738 6.458-3.293 9.429-.755 1.502-1.64 2.937-2.556 4.35a50.05 50.05 0 0 1-2.952 4.112"/>
                <g>
                    <path fill="#ED9E95" d="M434.024 515.663c0 4.211 32.36 7.625 72.277 7.625s72.276-3.414 72.276-7.625-32.359-7.625-72.276-7.625c-39.917 0-72.277 3.414-72.277 7.625M584.047 510.464c0 .86 6.609 1.557 14.763 1.557 8.153 0 14.763-.697 14.763-1.557s-6.61-1.558-14.763-1.558c-8.154 0-14.763.698-14.763 1.558M563.814 525.863c0 .861 6.609 1.558 14.763 1.558 8.153 0 14.763-.697 14.763-1.558 0-.859-6.61-1.556-14.763-1.556-8.154 0-14.763.697-14.763 1.556"/>
                    <path fill="#C23D30" d="M549.714 498.563s-19.499-12.019-21.789-22.147c-1.67-7.383-1.67-20.165-1.67-20.165l1.896-31.073s-15.712 5.188-19.326 0c0 0-.762 40.99 9.817 58.179 10.577 17.19 29.632 20.826 29.632 20.826s2.763-1.323 1.44-5.62"/>
                    <path fill="#272240" d="M549.714 498.563s5.951.334 6.832 2.261c.882 1.926-1.543 6.775-1.102 9.64.441 2.864-.441 6.611-5.73 6.611-5.289 0-4.203-3.967-1.44-4.408 2.763-.44 0-8.484 0-8.484s2.542-2.314 1.44-5.62"/>
                    <path fill="#392D6A" d="M518.799 332.4s15.43-.661 18.569 12.782c3.138 13.443-5.231 21.817-14.908 24.241l-19.091-26.225s-15.301-8.374-4.12-19.173c9.089-5.949 19.55 8.375 19.55 8.375"/>
                    <path fill="#E7895A" d="M503.369 343.198s-5.754 12.562-3.662 21.818c2.092 9.255 16.215 10.798 16.215 10.798s1.308 2.645 0 6.612c0 0 6.277.881 6.538-4.188 0 0-1.045-4.187 0-8.815 0 0 8.893-5.069 4.447-11.459-3.401-4.188-5.492 0-5.492 0s-9.677-3.967-8.893-17.63c0 0-6.015 3.306-9.153 2.864"/>
                    <path fill="#272240" d="M494.31 408.004l-7.909-16.047-1.487.826 7.851 16.694 1.545-1.473"/>
                    <path fill="#EEC24D" d="M526.552 417.694s2.787 8.942 7.084 12.144c0 0-.168 1.614-4.446 5.089 0 0-8.256-9.816-10.316-14.41l7.678-2.823"/>
                    <path fill="#FFFFFE" d="M515.922 382.426s-12.386 14.103-7.097 42.752c0 0 1.41 5.069 19.326 0 0 0-2.416-4.037-1.395-8.96 1.021-4.923-6.048-34.917-6.048-34.917s-1.782 1.591-4.786 1.125"/>
                    <path fill="#B86F4F" d="M506.841 351.504c-.697.637-1.271 1.1-1.939 1.337a4.584 4.584 0 0 1-1.069.263c-.392.058-.807.066-1.289.135.343.331.77.563 1.246.658.474.121.996.06 1.478-.106.971-.369 1.63-1.33 1.573-2.287"/>
                    <path fill="#EEC24D" d="M522.46 378.238s9.725-1.543 11.267 10.798c1.543 12.342-1.301 41.431-34.478 29.09 0 0 2.744-3.306 2.523-6.17 0 0 21.597 5.509 20.936-10.358-.44-11.24-.713-15.225-4.239-19.25 0 0 4.099-1.227 3.991-4.11"/>
                    <path fill="#B86F4F" d="M500.608 353.513s-1.322 2.755-3.085 3.856c-1.763 1.103-.11 3.527 1.102 3.306l1.212-.22.771-6.942"/>
                    <path fill="#DE4E34" d="M528.151 425.178s4.034 8.926-2.247 17.52c-6.281 8.595-50.6 55.865-56.869 67.766 0 0-4.616-1.653-5.277-5.95 0 0 46.366-66.965 45.067-79.336.041-.347 1.494 5.237 19.326 0"/>
                    <path fill="#272240" d="M469.035 510.464s-2.302 3.746-4.065 5.068c-1.763 1.322-13.002-7.713-14.986-11.349-1.983-3.636 1.763-4.297 5.51-2.094 3.746 2.204 6.391 5.155 8.264 2.425 0 0 .968 4.407 5.277 5.95"/>
                    <path fill="#E7895A" d="M501.485 412.477s-2.236-2.05-3.727-3.262c-1.491-1.211-2.982-1.863-3.448-1.211-.466.652 1.305 2.702 1.305 2.702s-4.566-5.497-5.311-5.404c-.746.093-2.702 2.05 0 6.522 2.702 4.473 9.047 5.87 9.047 5.87s2.413-3.168 2.134-5.217M533.11 430.938s1.774 1.065 2.738 3.989c.964 2.923 4.821-.72 6.033 0 1.212.719.33 4.135-2.424 5.127-2.755.991-6.171 1.212-6.942 0-.771-1.212-3.325-5.127-3.325-5.127s3.394-2.891 3.92-3.989"/>
                    <path fill="#392D6A" d="M518.874 355.595s1.297 8.594-1.043 11.9c-2.34 3.306-13.083-.661-13.91-3.306-.826-2.644-4.657-2.78-4.657-2.78s-1.623.301-1.293 2.615c.331 2.314-.165 16.363 14.049 16.198 7.934-.993 10.029-12.286 9.395-22.258 0 0-1.657-.975-2.541-2.369"/>
                </g>
                <g>
                    <path fill="#ED9E95" d="M424.402 220.993c0 .721-5.538 1.305-12.37 1.305-6.832 0-12.37-.584-12.37-1.305s5.538-1.305 12.37-1.305c6.832 0 12.37.584 12.37 1.305"/>
                    <path fill="#755D98" d="M409.645 221.354s-10.995-11.982-14.096-19.171c-3.101-7.189 1.973-8.458 4.511-4.652 2.537 3.806 7.189 12.405 8.458 2.115 1.268-10.291-.423-12.546 1.127-13.814 1.55-1.269 3.524-.424 4.934 4.51 1.409 4.934 6.343 5.921 7.611 1.269 1.269-4.652 4.511-14.942 9.163-14.379 4.652.564-.141 8.036 0 12.264.141 4.229 3.947 3.525 6.908-.282 2.96-3.806 13.109-15.55 17.62-12.004 4.511 3.547-1.833 8.198 0 12.709 1.832 4.511 1.551 11.865-7.048 9.034-8.599-2.831-8.035 5.203-8.458 6.613-.423 1.41-2.537 6.203-7.894 3.806-5.357-2.396-8.317-1.269-6.343.705 1.973 1.973 5.497 4.088 3.665 5.215-1.832 1.128-8.881-2.537-11.841-.563-2.96 1.973-4.088 6.625-4.088 6.625h-4.229"/>
                    <path fill="#392D6A" d="M451.934 187.523c-3.618 3.114-7.472 5.97-11.626 8.376-1.036.603-2.099 1.175-3.219 1.645-1.114.47-2.245.87-3.378 1.257l-6.789 2.254c-2.252.756-4.489 1.558-6.62 2.571-2.115 1.013-4.193 2.23-5.678 3.991-.74.883-1.231 1.922-1.373 3.081a97.783 97.783 0 0 0-.496 3.534c-.29 2.36-.523 4.737-.432 7.122-.282-2.376-.133-4.78.02-7.164.101-1.191.229-2.38.379-3.567a6.997 6.997 0 0 1 .443-1.805c.258-.568.561-1.121.948-1.604 1.534-1.976 3.715-3.209 5.854-4.281 2.169-1.059 4.423-1.896 6.683-2.678l6.818-2.183c1.128-.372 2.251-.756 3.341-1.201a36.65 36.65 0 0 0 3.185-1.538c2.094-1.112 4.112-2.376 6.094-3.694 1.995-1.301 3.932-2.692 5.846-4.116"/>
                    <path fill="#ED9E95" d="M536.265 233.92c0 4.211-32.36 7.625-72.277 7.625s-72.276-3.414-72.276-7.625c0-4.212 32.359-7.625 72.276-7.625 39.917 0 72.277 3.413 72.277 7.625M515.424 244.646c0 .721-5.538 1.305-12.37 1.305-6.832 0-12.37-.584-12.37-1.305s5.538-1.305 12.37-1.305c6.832 0 12.37.584 12.37 1.305"/>
                    <path fill="#C23D30" d="M514.045 182.177h-45.97l-17.631-9.795h37.321l26.28 9.795"/>
                    <path fill="#DE4E34" d="M514.045 123.009v59.168h-6.129v-2.284l-20.151-7.511v-57.298s12.393-14.46 26.28 7.925"/>
                    <path fill="#C23D30" d="M507.916 121.975v57.918l-26.28-8.544V114.05s12.392-14.46 26.28 7.925"/>
                    <path fill="#DE4E34" d="M468.075 189.904h45.97v-7.727h-45.97z"/>
                    <path fill="#C23D30" d="M450.444 172.382v6.313l17.631 11.209v-7.727l-17.631-9.795"/>
                    <path fill="#272240" d="M450.444 211.816h1.948v-33.012h-1.948z"/>
                    <path fill="#EEC24D" d="M484.282 150.472s-18.166 10.302-28.178 11.318-7.941 19.734-8.251 23.072c-.31 3.337-2.487 24.813-2.487 24.813s2.612 2.032 5.078.87c0 0 12.996-32.537 15.237-45.418 0 0 20.266-8.101 28.997-16.602 0 0-5.579 2.092-10.396 1.947"/>
                    <path fill="#CFAD4A" d="M497.314 147.279s12.915 15.236 0 26.845c-9.69 7.255-32.939 8.126-32.939 8.126s3.047 23.797-1.161 38.743c0 0-2.467 2.322-6.529.726 0 0-1.059-10.556-3.432-18.991 0 0 10.542-28.604 12.428-37.601 0 0 17.981-7.461 28.997-16.602 0 0 1.185-.666 2.636-1.246"/>
                    <path fill="#755D98" d="M469.163 74.29s-17.703 5.225-5.659 26.845c2.322 5.079-1.441 8.271.731 15.237 2.171 6.964 10.443 22.346 31.628 13.494 21.186-8.851 20.025-22.781 16.687-28.731-3.337-5.949-3.773-6.965-3.193-17.412.581-10.448-8.006-27.426-24.898-25.104-16.892 2.322-15.296 15.671-15.296 15.671"/>
                    <path fill="#E7895A" d="M468.003 85.028s-1.161 23.798 14.945 22.637c16.108-1.161 16.398-12.915 15.672-13.93 0 0 5.063-4.063.21-8.707-2.387-2.467-4.853 2.467-4.853 2.467s-12.624 4.789-23.363-6.384c0 0-.725 2.612-2.611 3.917"/>
                    <path fill="#E7895A" d="M484.459 107.52s.93 4.063 0 6.385 1.972 5.659 5.02 2.322c3.046-3.338 2.611-5.515 2.611-5.515s-.788-1.872-.611-5.144c0 0-3.282 1.305-7.02 1.952"/>
                    <path fill="#272240" d="M448.123 152.938s22.056-.145 25.539-19.734c3.483-19.59 10.797-19.299 10.797-19.299s-.141 3.274 3.165 3.596c0 0-8.448 30.358-14.687 33.551-6.241 3.192-18.429 6.24-23.653 6.24 0 0-2.177-2.177-1.161-4.354"/>
                    <path fill="#392F68" d="M484.282 150.472s.006-11.506-1.914-14.874c-1.92-3.369-4.353-7.473-2.177-13.277 2.177-5.804 4.268-8.416 4.268-8.416l7.631-3.193s4.789-1.123 8.126.89l-2.902 35.677s-6.619 3.773-13.032 3.193"/>
                    <path fill="#FFFFFE" d="M402.705 161.428v3.86c0 1.371 16.469 2.482 36.784 2.482 20.316 0 36.784-1.111 36.784-2.482v-3.86h-73.568"/>
                    <path fill="#392D6A" d="M476.273 161.428c0 1.37-16.468 2.482-36.784 2.482-20.315 0-36.784-1.112-36.784-2.482 0-1.371 16.469-2.483 36.784-2.483 20.316 0 36.784 1.112 36.784 2.483"/>
                    <path fill="#E7895A" d="M448.123 152.938s-4.861-.87-6.312-.725c-1.452.145-4.063 2.757-6.312 3.555-2.249.798.87 2.467 4.426 1.886 3.554-.58 5.731.435 9.359-.362 0 0-1.887-1.814-1.161-4.354"/>
                    <path fill="#272240" d="M410.431 231.15v2.801c0 .994 11.946 1.8 26.683 1.8s26.683-.806 26.683-1.8v-2.801h-53.366M408.872 133.839l9.794 26.881h31.866l-9.882-26.881h-31.778"/>
                    <path fill="#392D6A" d="M463.797 231.151c0 .994-11.946 1.8-26.683 1.8s-26.683-.806-26.683-1.8c0-.995 11.946-1.801 26.683-1.801s26.683.806 26.683 1.801"/>
                    <path fill="#FFFFFE" d="M434.738 230.135h4.751V167.77h-4.751z"/>
                    <path fill="#3F3C7B" d="M445.366 209.675s-4.823 7.328-8.252 9.722c-3.429 2.394-2.268 6.965 2.375 4.136 4.644-2.83 7.255-5.998 8.996-6.482 1.742-.484 1.959-6.506 1.959-6.506s-3.3.291-5.078-.87M457.854 222.078s1.841 1.781-2.077 3.74c-3.918 1.959-10.66 3.674-9.467 5.333 1.191 1.659 9.794-.726 12.406-1.016 2.612-.29 5.374-1.489 5.081-3.23-.293-1.74-.583-5.912-.583-5.912s-1.432 1.807-5.36 1.085"/>
                    <path fill="#272240" d="M450.532 160.72h20.876v-1.343h-21.369l.493 1.343"/>
                    <path fill="#B86F4F" d="M475.381 93.046s.312 3.047-.449 4.897c-.762 1.85.761 3.265 1.849 3.047 1.089-.218 1.372-.761 1.372-.761l-2.772-7.183"/>
                    <path fill="#3F3C7B" d="M470.324 160.629s26.796-10.962 27.425-18.701c.63-7.74-2.611-22.655-.87-26.427 1.741-3.773 3.337-3.899 3.337-3.899s5.659-.019 6.53 7.091c.87 7.11.58 28.006-7.836 33.229-8.416 5.224-27.28 11.464-27.28 11.464s-2.321-.435-1.306-2.757"/>
                    <path fill="#E7895A" d="M470.324 160.629s-4.426-.218-6.095 0c-1.667.218-4.643 2.757-6.384 3.773-1.741 1.015-1.306 2.467-.435 2.467 0 0 2.358.943 6.076 0 3.718-.944 8.144-3.483 8.144-3.483s-2.176-.653-1.306-2.757"/>
                    <path fill="#B86F4F" d="M470.067 94.409c.423.208.763.415 1.079.584.317.161.595.278.787.275.18.02.383-.022.683-.193.14-.086.293-.198.462-.303.163-.12.327-.248.547-.363.038.467-.063.92-.333 1.33-.246.414-.823.784-1.452.738a1.882 1.882 0 0 1-1.33-.786c-.278-.376-.444-.805-.443-1.282M479.335 92.61c1.21.08 2.162.002 2.92-.451.385-.222.728-.541 1.092-.905.169-.19.341-.396.532-.599.175-.216.35-.44.58-.657.024.304-.007.602-.039.907-.075.288-.15.589-.281.87a3.384 3.384 0 0 1-1.28 1.437c-.595.332-1.308.45-1.941.319-.631-.122-1.2-.437-1.583-.921M479.335 102.514c.827-.614 1.523-1.062 1.913-1.618.207-.266.348-.565.434-.949.105-.384.123-.824.214-1.351.381.352.662.817.733 1.366.113.544-.055 1.175-.401 1.651-.361.47-.853.784-1.361.923-.506.142-1.033.161-1.532-.022"/>
                    <path fill="#272240" d="M468.075 235.751h1.946v-45.847h-1.946zM512.098 235.751h1.947v-45.847h-1.947zM481.271 212.104h1.947v-22.2h-1.947z"/>
                </g>
                <g>
                    <path fill="#ED9E95" d="M315.797 569.646c0 4.211-32.359 7.625-72.276 7.625-39.917 0-72.276-3.414-72.276-7.625s32.359-7.625 72.276-7.625c39.917 0 72.276 3.414 72.276 7.625M171.245 563.086c0 .588-4.518 1.064-10.091 1.064-5.573 0-10.091-.476-10.091-1.064 0-.588 4.518-1.065 10.091-1.065 5.573 0 10.091.477 10.091 1.065M195.024 579.572c0 .588-4.518 1.064-10.09 1.064-5.573 0-10.091-.476-10.091-1.064 0-.588 4.518-1.065 10.091-1.065 5.572 0 10.09.477 10.09 1.065"/>
                    <path fill="#392D6A" d="M300.414 558.609s11.517 4.479 17.702 4.692c0 0 7.252-.64-11.517-9.171 0 0-2 1.898-6.399 1.493l.214 2.986M267.583 568.038s12.208 1.916 18.296.803c0 0 7.917-1.534-12.241-5.86 0 0-3.004.322-7.736-.96l1.681 6.017"/>
                    <path fill="#C67451" d="M265.902 523.216s11.69 13.211 8.917 22.809c-2.773 9.598-8.917 15.996-8.917 15.996s4.438 2.133 8.491 1.28c0 0 12.836-10.54 11.43-35.13 0 0-6.661-6.422-14.804-7.508l-1.746 2.754-3.371-.201"/>
                    <path fill="#3F3C7B" d="M269.273 523.417s-5.971-1.494-18.982 3.412c-13.011 4.905-43.924 13.437-47.237-12.371 0 0 .955-11.731-1.179-18.769l16.423 11.304s17.276 4.266 31.14 0c13.864-4.265 18.769-4.052 22.395-2.773 0 0 4.479 9.812-2.56 19.197"/>
                    <path fill="#755D98" d="M229.598 422.531s3.621 12.584 0 20.05c0 0 1.07 17.063-16.419 14.29 0 0 1.92 8.105 4.905 8.531 0 0-23.888 7.252-34.126-11.091 0 0-2.985-6.398 0-10.877 2.987-4.479 6.826-3.84 6.826-3.84s-1.92-9.384 3.199-15.57c5.119-6.185 29.851-15.569 35.615-1.493"/>
                    <path fill="#E7895A" d="M226.403 427.01s8.672 22.709-2.56 28.155c-7.038 3.412-10.664 1.706-10.664 1.706s-1.493 7.038 1.493 12.797c0 0-4.693 5.119-9.811-3.199 0 0 2.772-7.892 1.919-13.651 0 0-1.493-2.133-1.919-5.119 0 0-2.986-4.905-1.28-7.678 1.706-2.773 4.906-1.493 5.332.64 0 0 11.731 1.706 17.49-13.651"/>
                    <path fill="#272240" d="M224.895 508.171l33.325-3.578 10.84-33.367h-3.158l-9.639 30.014-31.368 3.62v3.311"/>
                    <path fill="#3F3C7B" d="M204.861 466.469s-8.319.853-7.892 9.171c.427 8.318 2.773 13.01 2.773 13.01s5.119-4.052 12.157-4.052c0 0 2.559 16.636 6.399 22.395 0 0-.853-11.091 0-16.849 0 0 6.612-3.2 4.692-9.172-1.919-5.972-8.318-11.304-8.318-11.304s-4.746 4.698-9.811-3.199"/>
                    <path fill="#E7895A" d="M223.34 517.231s-13.787 7.678-23.598-28.581c0 0 4.479-4.479 12.157-4.052 0 0 3.413 17.916 6.399 22.395 2.986 4.479 13.223 2.346 14.503-1.066 1.28-3.413-1.066-8.745 2.773-10.665 3.839-1.919 7.678-2.346 8.531-.213.854 2.133-1.919 5.13-4.052 6.191-2.133 1.061-1.28 6.18-2.986 7.886-1.706 1.707-9.364 7.509-13.727 8.105M271.019 520.663s10.412 1.139 18.517 11.545c8.105 10.404 10.664 23.415 10.664 23.415s4.479.64 6.399-1.493c0 0 .213-37.658-34.126-48.049 0 0 2.21 6.497-1.454 14.582"/>
                    <path fill="#FFFFFE" d="M172.227 502.941s-6.018-27.908 11.731-31.715c17.75-3.807 19.096 31.447 19.096 31.447s-5.247 37.822 43.924 25.337c0 0 12.698-3.527 15.257 7.35 2.559 10.878-3.413 16.85-10.878 18.77-7.464 1.919-40.736 4.692-49.482 2.772 0 0-16.21-.639-29.648-53.961"/>
                    <path fill="#392F68" d="M196.953 570.148h7.481l6.397-12.601h-6.939l-6.939 12.601M258.141 570.148h-7.481l-7.454-14.685 6.446-.731 8.489 15.416"/>
                    <path fill="#B86F4F" d="M227.732 440.021s1.28 2.666 2.986 3.732c1.706 1.067.107 3.413-1.066 3.2l-1.173-.214-.747-6.718M221.524 437.888c.676.616 1.23 1.064 1.877 1.293.319.12.657.208 1.035.254.378.057.78.064 1.247.133-.332.32-.745.544-1.205.637-.459.116-.965.057-1.432-.104-.939-.357-1.577-1.288-1.522-2.213M222.644 446.966c.24.712.421 1.219.72 1.446.142.133.349.233.608.351.268.101.57.191.923.355a1.803 1.803 0 0 1-1.019.408c-.38.025-.813-.08-1.166-.377a1.486 1.486 0 0 1-.487-1.155c.013-.392.147-.755.421-1.028"/>
                    <path fill="#755D98" d="M167.126 562.716s6.034-9.743.502-14.991c-4.067-2.93-8.705 2.197-11.268-.732-2.563-2.93 9.154-12.572 5.371-17.454-3.784-4.882-11.351-5.248-15.745-1.098-4.394 4.149 2.685 27.418 8.178 34.275 0 0 7.251.832 12.962 0"/>
                    <path fill="#392D6A" d="M160.986 563.086c-2.305-2.479-4.285-5.261-5.951-8.223-1.669-2.957-2.948-6.177-3.5-9.569-.299-1.694-.245-3.432-.064-5.142.285-1.675.562-3.358 1.054-4.99.472-1.634 1.044-3.244 1.793-4.774.775-1.503 1.668-3.006 2.97-4.102-1.194 1.2-2.008 2.707-2.677 4.239-.68 1.535-1.19 3.14-1.596 4.767-.409 1.629-.699 3.285-.951 4.945-.152 1.648-.186 3.318.122 4.958.481 3.299 1.738 6.458 3.293 9.429.755 1.501 1.639 2.937 2.556 4.35a49.802 49.802 0 0 0 2.951 4.112"/>
                </g>
                <g>
                    <path fill="#4D4279" d="M382.186 0h62.628C448.23 0 451 2.73 451 6.107v33.47c0 3.377-2.77 6.109-6.186 6.109h-3.371V61L425.96 45.686h-43.775c-3.416 0-6.186-2.732-6.186-6.109V6.107C376 2.73 378.77 0 382.186 0"/>
                    <path fill="#FFFFFE" d="M435.927 33h-14.852c-1.145 0-2.075.897-2.075 2.001 0 1.105.93 1.999 2.075 1.999h14.852c1.146 0 2.073-.894 2.073-1.999 0-1.104-.927-2.001-2.073-2.001M435.961 23h-26.92c-1.127 0-2.041.897-2.041 2.001 0 1.105.914 1.999 2.04 1.999h26.921c1.127 0 2.039-.894 2.039-1.999 0-1.104-.912-2.001-2.039-2.001M435.935 13h-46.868c-1.141 0-2.067.896-2.067 2s.926 2 2.067 2h46.868c1.141 0 2.065-.896 2.065-2s-.924-2-2.065-2"/>
                </g>
                <g>
                    <path fill="#755D98" d="M180.814 93h-62.628C114.77 93 112 95.73 112 99.107v33.47c0 3.377 2.77 6.109 6.186 6.109h3.371V154l15.482-15.314h43.775c3.416 0 6.186-2.732 6.186-6.109v-33.47c0-3.377-2.77-6.107-6.186-6.107"/>
                    <path fill="#FFFFFE" d="M127.073 126h14.852c1.145 0 2.075.897 2.075 2.001 0 1.105-.93 1.999-2.075 1.999h-14.852c-1.146 0-2.073-.894-2.073-1.999 0-1.104.927-2.001 2.073-2.001M127.039 116h26.92c1.127 0 2.041.897 2.041 2.001 0 1.105-.914 1.999-2.04 1.999h-26.921c-1.127 0-2.039-.894-2.039-1.999 0-1.104.912-2.001 2.039-2.001M127.065 106h46.868c1.141 0 2.067.896 2.067 2s-.926 2-2.067 2h-46.868c-1.141 0-2.065-.896-2.065-2s.924-2 2.065-2"/>
                </g>
                <circle cx="369.5" cy="404.5" r="3.5" fill="#E6E7ED" fill-rule="nonzero"/>
                <circle cx="420" cy="335" r="4" fill="#E6E7ED" fill-rule="nonzero"/>
                <circle cx="332.5" cy="97.5" r="6.5" fill="#E0E1E8" fill-rule="nonzero"/>
                <circle cx="10" cy="106" r="5" fill="#E0E1E8" fill-rule="nonzero"/>
            </g>
        </g>
    </g>
</svg>
