<svg xmlns="http://www.w3.org/2000/svg" xmlns:xlink="http://www.w3.org/1999/xlink" width="1440" height="1238" viewBox="0 0 1440 1238">
    <defs>
        <path id="a" d="M0 0h2186v1238H0z"/>
        <radialGradient id="b" cx="60.934%" cy="63.857%" r="35.3%" fx="60.934%" fy="63.857%" gradientTransform="matrix(-.13534 .97407 -1.19074 -.46244 1.452 .34)">
            <stop offset="0%" stop-color="#DADFEF"/>
            <stop offset="36.168%" stop-color="#B5BFE0"/>
            <stop offset="100%" stop-color="#6F7FBA"/>
        </radialGradient>
        <path id="d" d="M1.368 1.346a69.76 69.76 0 0 1-.227-.622l.637-.07-.41.692z"/>
        <path id="f" d="M17.177 8.478H4.726C3.91 6.162 2.869 3.925 1.528 1.793c-.235-.373-.477-.74-.726-1.1h16.375v7.785z"/>
        <path id="h" d="M.716 1.161L.693.88l.023.282.893-.073c-.308.05-.607.073-.893.073z"/>
    </defs>
    <g fill="none" fill-rule="evenodd">
        <g>
            <mask id="c" fill="#fff">
                <use xlink:href="#a"/>
            </mask>
            <path fill="url(#b)" fill-rule="nonzero" d="M0 904.462C-209.923 892.86-377 694.947-377 452.5-377 202.591-199.48 0 19.5 0S416 202.591 416 452.5c0 29.172-2.419 57.7-7.04 85.336 19.173-5.748 39.496-8.836 60.54-8.836 83.531 0 155.698 48.654 189.708 119.169C734.963 574.423 838.427 529 952.5 529c187.268 0 345.945 122.416 400.372 291.591C1394.885 781.733 1445.726 759 1500.5 759c101.463 0 189.429 78.004 232.784 192.011A212.351 212.351 0 0 1 1762.5 949c83.07 0 154.902 48.119 189.142 118.004.452-.003.905-.004 1.358-.004 128.682 0 233 104.318 233 233 0 128.682-104.318 233-233 233-105.212 0-194.136-69.735-223.074-165.505a209.026 209.026 0 0 1-41.009-10.714C1641.345 1423.493 1574.513 1465 1500.5 1465c-111.022 0-205.885-93.395-243.824-225.159C1180.104 1320.038 1072.136 1370 952.5 1370c-120.55 0-229.251-50.727-305.923-132H0V904.462z" mask="url(#c)"/>
        </g>
        <g fill="#BEBFC7" fill-rule="nonzero" transform="translate(493 231)">
            <circle cx="20.5" cy="20.5" r="20.5"/>
            <circle cx="296" cy="288" r="5"/>
            <circle cx="73" cy="268" r="9"/>
            <circle cx="116" cy="198" r="5"/>
            <circle cx="377" cy="229" r="15"/>
        </g>
        <path fill="#ED9E95" d="M194.5 1207c-22.368 0-40.5-1.79-40.5-4s18.132-4 40.5-4c22.367 0 40.5 1.79 40.5 4s-18.133 4-40.5 4M108.498 1134c-22.366 0-40.498-1.79-40.498-4s18.132-4 40.498-4c22.369 0 40.502 1.79 40.502 4s-18.133 4-40.502 4M633.41 1140l-18.41-6.998 1.378-.002c27.958 0 50.622 1.613 50.622 3.604 0 1.565-14.011 2.898-33.59 3.396"/>
        <path fill="#D9D1DF" d="M152 711v415h441V724.732L152 711"/>
        <path fill="#C9C0D5" d="M473.713 1125l-.492-.005 11.779-.174-11.287.179m-200.644-2.119l-9.069-.094L270.269 1016l2.8 106.881"/>
        <path fill="#8179AA" d="M271.87 1125.166l-.975-112.358 211.502-7.986 1.56 120.896-212.088-.552 65.055-2.865z"/>
        <path fill="#C9C0D5" d="M348.478 960L346 855.044l.475-.044 1.104 13.444c-.048.14-.083.29-.1.444l7.606 91.06-6.607.052m10.774-.087l175.438-14.496c.081.17.163.34.246.508l.444-.565 3.698-.306c.323 1.829 1.397 7.59 3.096 13.385l-182.922 1.474m193.049-1.555l-5.771-13.92 18.385-1.518.085 1.036-12.553 14.402h-.146"/>
        <path fill="#F2F4F7" d="M150 734.895L593 738v-17.85L150 710v24.895"/>
        <path fill="#5A4D8E" d="M150 735v36h443v-32.91L150 735"/>
        <path fill="#FFFFFE" d="M206 753c0 7.18-5.82 13-13 13s-13-5.82-13-13 5.82-13 13-13 13 5.82 13 13M222 757h65v-9h-65zM323 743v23h163v-21.152L323 743"/>
        <text fill="#4C74A4" font-family="LucidaGrande, Lucida Grande" font-size="6.572" letter-spacing="-.09" transform="translate(-13 263)">
            <tspan x="347" y="491">T</tspan> <tspan x="351.065" y="491" letter-spacing=".37">e</tspan> <tspan x="355.097" y="491" letter-spacing=".501">x</tspan> <tspan x="359.628" y="491">t</tspan>
        </text>
        <path fill="#E77D69" d="M168 723.5a2.5 2.5 0 1 1-5 0 2.5 2.5 0 0 1 5 0"/>
        <path fill="#F5D057" d="M180 723.5a2.5 2.5 0 1 1-5 0 2.5 2.5 0 0 1 5 0"/>
        <path fill="#53B583" d="M193 723.5a2.5 2.5 0 1 1-5 0 2.5 2.5 0 0 1 5 0"/>
        <path fill="#BCB1CC" d="M188 874h6v-74h-6z"/>
        <path fill="#8179AA" d="M207 805.83V812h80.006l.994-7-81 .83M342 796.827V803h224.214l2.786-7-227 .827M342 965.828V972h224.214l2.786-7-227 .828M343 818.828V825h84.946l1.054-7-86 .828M343 987.828V994h84.946l1.054-7-86 .828M207 825v6h80.697l.303-5.463-81-.537M207 845v6h80.697l.303-5.463-81-.537M207 868v6h80.697l.303-5.464-81-.536"/>
        <path fill="#F3D0A3" d="M346 849.429L355.134 960 566 942.703 556.69 830 346 849.429"/>
        <g transform="translate(534 944)">
            <mask id="e" fill="#fff">
                <use xlink:href="#d"/>
            </mask>
            <path fill="#BDB4CE" d="M1.141 1.346h.637V.654H1.14z" mask="url(#e)"/>
        </g>
        <path fill="#F3D0A3" d="M535.498 945l-.212-.465c-.005.002-.011.002-.016.003l.013-.011a42.326 42.326 0 0 1-3.161-10.469c-.103-.635-.193-1.291-.04-1.917.326-1.33 1.726-2.141 3.08-2.141.148 0 .294.01.44.03 1.477.198 2.739 1.188 3.754 2.3 1.014 1.114 1.861 2.386 2.956 3.42.746.703 1.594 1.284 2.467 1.813a29.124 29.124 0 0 0 6.317 2.876c1.39.44 2.888.818 3.904 1.883-1.098.524-2.322.613-3.547.613-.42 0-.838-.01-1.252-.017a58.905 58.905 0 0 0-3.442.04l-.848-2.08-5.126 2.619a59.8 59.8 0 0 0-4.134.73l.064.02-.535.695-.682.058"/>
        <path fill="#C9C0D5" d="M565 919a7.421 7.421 0 0 1-1.25-.806L561 884l4 35"/>
        <path fill="#F3D0A3" d="M564 918c-3.142-2.406-4.172-6.942-5.139-10.907a80.323 80.323 0 0 0-9.816-23.33c-.792-1.278-1.64-2.573-1.935-4.043-.583-2.89 1.216-5.909 3.813-7.382 1.667-.946 3.581-1.338 5.516-1.338 1.081 0 2.167.123 3.22.34l1.459 12.257L564 918"/>
        <path fill="#D9D1DF" d="M584 1092.899l2.66 4.101 3.34-1.518-3-4.482-3 1.899"/>
        <path fill="#382E65" d="M598.864 1107.261s-14.393-3.567-16.675-1.74C579.907 1107.344 599 1110 599 1110l-.136-2.739"/>
        <path fill="#E7895A" d="M545.984 941.786s.142-9.854-.416-10.029c-1.62-.506-1.986 4.57-1.986 4.57s-2.912-9.76-4.29-9.312c-.851.274.285 5.881.285 5.881s-2.426-4.52-3.626-4.234c-1.17.279 1.292 6.317 1.292 6.317s-2.102-2.917-3.19-2.554c-.749.25 6.805 13.575 6.805 13.575l5.126-4.214"/>
        <path fill="#382E65" d="M575.646 998.598s-22.884 27.746-11.442 60.317c11.442 32.57 19.187 36.026 19.187 36.026l6.628-3.47s-12.746-30.514-13.297-41.629c-.5-10.106 17.093-33.752 17.093-33.752l-3.566 89.827 8.44 1.083s22.54-100.56 20.13-108.402c-2.407-7.84-12.46-19.302-43.173 0"/>
        <path fill="#F6BE5C" d="M571.07 960.088L576.037 998 617 993.216 600.4 934l-12.313 1.973-8.769 1.022c-4.984.581-8.099 1.481-11.71 4.96l-14.288 16.31-7.085-17.001-6.235 3.112s5.103 30.952 13.134 27.78c5.489-2.168 17.936-12.068 17.936-12.068"/>
        <path fill="#F6BE5C" d="M563.446 886s9.074 22.886 10.284 26.5c1.21 3.614 26.27 20.87 26.27 20.87L587.64 939l-24.194-22.324L558 886h5.446"/>
        <path fill="#E7895A" d="M572.655 911l-3.455 11.886a4.972 4.972 0 0 0 3.408 6.171l1.565.447V938h7.217a4.612 4.612 0 0 0 4.61-4.611v-19.357L572.655 911M558.118 886s-5.405-6.365-5.106-6.778c.87-1.203 3.863 1.918 3.863 1.918s-3.208-7.944-1.995-8.394c.745-.275 2.964 3.997 2.964 3.997s-.724-4.259.274-4.716c.975-.447 2.493 4.825 2.493 4.825s-.09-3.04.871-3.385C562.143 873.227 564 886 564 886h-5.882"/>
        <path fill="#CA9746" d="M579.999 953.019c.032.085-.564.397-1.424 1.069-.865.673-2.078 1.61-3.444 2.591-2.73 1.973-5.024 3.456-5.127 3.311-.104-.143 2.028-1.86 4.76-3.834 1.37-.986 2.615-1.858 3.56-2.447.956-.595 1.647-.772 1.675-.69M586.545 930l.18.059c.104.076.206.254.246.482.068.468.01 1.074-.11 1.85-.134.765-.382 1.684-.928 2.592a5.066 5.066 0 0 1-1.075 1.266 4.995 4.995 0 0 1-1.55.868c-2.255.717-4.354.878-5.872.883-1.518-.008-2.442-.187-2.436-.267.006-.096.937-.079 2.42-.186 1.473-.114 3.551-.357 5.678-1.035a4.444 4.444 0 0 0 2.346-1.845c.518-.802.8-1.652.982-2.372.17-.716.29-1.346.3-1.728.011-.402-.204-.525-.181-.567M551.917 963.529c.074 0 .144.166.208.465l-.404.006c-.134-.553-.234-1.599-.158-2.791.106-1.807.564-3.236.772-3.209.218.028.116 1.47.012 3.24-.072 1.171-.128 2.197-.222 2.75l-.404.007c.056-.3.124-.467.196-.468"/>
        <path fill="#CA9746" d="M553.604 962c-.212.031-.656-1.059-.99-2.439-.334-1.38-.432-2.525-.218-2.56.212-.032.656 1.06.99 2.44.334 1.378.432 2.525.218 2.558M545.998 943.036c.064.184-1.45.987-3.383 1.794-1.932.81-3.55 1.316-3.613 1.132-.066-.18 1.448-.984 3.381-1.792 1.933-.807 3.552-1.314 3.615-1.134M615 990.005c.019.032-.438.407-1.37.904-.927.506-2.346 1.082-4.142 1.597-3.593 1.002-8.593 2.202-14.165 3.28a203.49 203.49 0 0 1-7.88 1.365c-2.43.36-4.618.699-6.488.809-1.867.119-3.396-.043-4.416-.282-1.024-.241-1.552-.501-1.539-.535.015-.053.565.122 1.583.278 1.016.158 2.507.247 4.34.067 1.831-.165 4.01-.55 6.43-.943a309.02 309.02 0 0 0 22.018-4.496c1.795-.45 3.208-.948 4.154-1.375.95-.416 1.447-.715 1.474-.67"/>
        <path fill="#C3BAD2" d="M571.711 974L570 961.23l.282-.23L572 973.824a3.663 3.663 0 0 1-.289.176"/>
        <path fill="#D6AD6D" d="M572.728 973L571 960.242l3.467-2.79a114.558 114.558 0 0 0 4.43-3.136c.406-.301.753-.528 1.007-.692-.49 3.064-2.865 16.497-7.176 19.376m6.47-19.356L580 953l-.05.333c-.194.063-.45.163-.751.311"/>
        <path fill="#B8905E" d="M574 958l4.315-3.698c.274-.144.507-.242.685-.302l-.042.282c-.232.16-.548.38-.919.672A104.852 104.852 0 0 1 574 958"/>
        <path fill="#392D6A" d="M582.744 896.967s12.235-.536 14.724 10.369c2.489 10.905-4.148 17.698-11.821 19.664l-15.139-21.274s-12.133-6.793-3.267-15.553c7.208-4.825 15.503 6.794 15.503 6.794"/>
        <path fill="#E7895A" d="M571.279 905.31s-4.58 10.133-2.915 17.6c1.665 7.465 12.904 8.71 12.904 8.71s1.04 2.133 0 5.333c0 0 4.995.71 5.203-3.378 0 0-.832-3.378 0-7.11 0 0 7.076-4.09 3.538-9.244-2.706-3.378-4.37 0-4.37 0s-7.7-3.2-7.077-14.221c0 0-4.786 2.667-7.283 2.31"/>
        <path fill="#B86F4F" d="M571.003 911c.648.519 1.182.896 1.804 1.089.306.1.631.175.994.214.365.047.75.053 1.199.11-.319.27-.716.458-1.159.535-.44.099-.926.05-1.375-.086-.903-.3-1.516-1.083-1.463-1.862M569 915s-1.029 1.92-2.4 2.687c-1.373.768-.087 2.457.857 2.303l.943-.153.6-4.837"/>
        <path fill="#392D6A" d="M583.868 915s1.045 7.328-.84 10.147c-1.884 2.819-10.535-.564-11.2-2.82-.666-2.254-3.751-2.37-3.751-2.37s-1.307.257-1.041 2.23c.266 1.973-.133 13.952 11.313 13.812 6.39-.847 8.076-10.476 7.566-18.979 0 0-1.335-.831-2.047-2.02"/>
        <path fill="#382E65" d="M590.315 1095s-13.521 5.823-14.29 8.51c-.768 2.688 15.975-6.57 15.975-6.57l-1.685-1.94"/>
        <path fill="#23203F" d="M575.997 1046.015c.084.134-1.598 1.207-3.814 2.305-2.214 1.1-4.109 1.802-4.18 1.662-.076-.144 1.691-1.074 3.891-2.168 2.202-1.092 4.017-1.937 4.103-1.8M575.998 1050.038c.056.156-1.38.647-3.007 1.456-1.636.8-2.849 1.614-2.981 1.494-.124-.104.936-1.146 2.648-1.985 1.706-.847 3.295-1.11 3.34-.965M606 1056.958c-.037.169-2.146-.172-4.646-.99-2.504-.815-4.417-1.784-4.352-1.943.066-.166 2.064.53 4.54 1.335 2.471.809 4.495 1.422 4.457 1.598M606.999 1055.969c-.053.17-2.205-.366-4.709-1.471-2.507-1.095-4.37-2.324-4.287-2.48.089-.164 2.07.787 4.542 1.87 2.469 1.088 4.508 1.901 4.454 2.08M584.3 1093.017c.186-.1.65.258 1.034.8.384.541.548 1.063.366 1.165-.182.104-.646-.255-1.032-.8-.386-.543-.55-1.065-.368-1.165M580.035 1085.006c.145-.085.693.736 1.225 1.835.531 1.096.848 2.062.706 2.152-.143.092-.69-.728-1.226-1.833-.533-1.103-.85-2.069-.705-2.154M576.047 1077.004c.17-.072.732.762 1.258 1.86.523 1.1.814 2.054.649 2.13-.167.08-.728-.753-1.256-1.86-.527-1.103-.818-2.057-.651-2.13M573.066 1069.003c.201-.06.78.784 1.293 1.885.514 1.099.772 2.043.575 2.108-.196.066-.774-.777-1.291-1.884-.516-1.106-.774-2.05-.577-2.11M570.217 1061.002c.204-.046.72.81 1.158 1.908.434 1.1.62 2.033.412 2.088-.204.051-.726-.801-1.164-1.908-.438-1.106-.62-2.041-.406-2.088M568.443 1053c.212-.028.634.84.942 1.937.306 1.098.382 2.022.174 2.062-.212.04-.634-.828-.942-1.938-.31-1.107-.386-2.031-.174-2.06M566.825 1044c.218-.003.472.883.568 1.98.094 1.097-.002 2-.218 2.02-.214.018-.468-.869-.566-1.981-.098-1.112 0-2.016.216-2.019M567.227 1035c.216.021.29.927.164 2.025-.124 1.098-.402 1.981-.618 1.975-.216-.008-.29-.913-.162-2.025.124-1.111.402-1.994.616-1.975M569.596 1027.002c.208.042.114.968-.214 2.066-.326 1.097-.762 1.96-.976 1.931-.212-.03-.118-.957.212-2.066.33-1.11.768-1.974.978-1.931M571.926 1018.004c.202.065-.048 1.007-.556 2.104-.508 1.096-1.088 1.944-1.292 1.89-.208-.056.042-.996.556-2.106.514-1.11 1.092-1.955 1.292-1.888M575.962 1010.006c.15.09-.157 1.049-.685 2.146-.53 1.095-1.084 1.92-1.236 1.843-.156-.077.15-1.037.685-2.144.534-1.107 1.088-1.932 1.236-1.845M579.978 1003.01c.115.114-.226 1.092-.762 2.187-.538 1.094-1.072 1.895-1.192 1.795-.12-.104.221-1.083.763-2.187.542-1.104 1.075-1.907 1.19-1.794M584.842 998.03c.164.135-.076.675-.536 1.21-.464.534-.976.86-1.144.732-.17-.13.07-.67.538-1.21.464-.538.976-.866 1.142-.732"/>
        <path fill="#8179AA" d="M642.974 1137c-.432.088-6.144-26.259-12.758-58.838-6.612-32.591-11.623-59.074-11.19-59.162.432-.086 6.144 26.254 12.758 58.845 6.612 32.58 11.623 59.067 11.19 59.155M662.974 1137c-.435.088-6.146-26.259-12.758-58.838-6.614-32.591-11.623-59.074-11.19-59.162.432-.086 6.143 26.254 12.757 58.845 6.612 32.58 11.621 59.067 11.191 59.155M584 1018h59v-11h-59z"/>
        <path fill="#8179AA" d="M609.971 1013c.426.075-3.917 27.897-9.7 62.133-5.783 34.25-10.815 61.942-11.242 61.867-.425-.075 3.918-27.892 9.702-62.14 5.78-34.236 10.814-61.935 11.24-61.86M594.971 1013c.425.075-3.916 27.897-9.699 62.133-5.784 34.25-10.816 61.942-11.243 61.867-.426-.075 3.917-27.892 9.7-62.14 5.782-34.236 10.815-61.935 11.242-61.86M629 1068h19.105l.895 5h-19.107l-.893-5"/>
        <path fill="#8179AA" d="M592 1124.26c.063.465-3.468 1.397-7.885 2.081-4.417.687-8.05.865-8.114.4-.064-.464 3.466-1.396 7.885-2.082 4.416-.686 8.05-.866 8.113-.4M593 1114.258c.063.466-3.467 1.398-7.885 2.083-4.419.686-8.05.866-8.114.4-.064-.464 3.465-1.396 7.883-2.082 4.418-.687 8.052-.865 8.115-.4M595 1102.258c.064.465-3.467 1.399-7.886 2.083-4.418.687-8.05.865-8.113.4-.064-.464 3.466-1.396 7.884-2.082 4.419-.687 8.05-.865 8.114-.4M597 1090.26c.063.465-3.466 1.397-7.884 2.081-4.42.687-8.052.865-8.115.4-.064-.464 3.466-1.396 7.884-2.082 4.419-.686 8.05-.866 8.114-.4M599 1079.258c.063.465-3.467 1.399-7.883 2.083-4.42.687-8.053.865-8.116.4-.064-.464 3.466-1.396 7.885-2.082 4.418-.687 8.05-.865 8.113-.4M601 1069.258c.063.465-3.467 1.397-7.884 2.083-4.42.686-8.05.866-8.115.4-.064-.466 3.466-1.398 7.886-2.082 4.417-.687 8.05-.865 8.112-.4M603 1057.258c.063.466-3.467 1.398-7.885 2.083-4.419.687-8.05.864-8.114.402-.064-.467 3.465-1.399 7.884-2.085 4.417-.684 8.05-.864 8.114-.4M605 1044.258c.063.466-3.467 1.398-7.883 2.083-4.42.686-8.051.865-8.116.402-.064-.466 3.467-1.399 7.885-2.083 4.418-.688 8.05-.865 8.113-.402M608 1030.258c.063.466-3.468 1.398-7.886 2.082-4.418.688-8.05.866-8.113.402-.064-.466 3.466-1.398 7.884-2.084 4.416-.684 8.05-.864 8.114-.4"/>
        <path fill="#E7895A" d="M74.472 1014.844s-2.616 7.766-.873 13.27c1.74 5.504 3.542 3.549 3.542 3.549s-1.303-2.17-.93-5.263c.372-3.093 1.03-4.142 1.03-4.142l1.455 6.485s.544-1.262.955-3.277c.41-2.012-.999-5.637-.635-7.488.363-1.85.984-3.978.984-3.978l-5.528.844M180.884 913.45l.458-2.791s-3.11-6.325-2.162-7.701c.948-1.38 4.076-3.958 4.076-3.958l1.939.277s3.46 4.19 3.772 5.58c.313 1.387-1.69 6.363-3.108 10.143l-4.975-1.55"/>
        <path fill="#81B2D4" d="M182 895.475L183.426 909l1.574-.42-1.46-13.38-.943-2.2-.597 2.475"/>
        <path fill="#E7895A" d="M181 899.8l1.803-1.8s.876 1.88-1.068 4l-.735-2.2M139.051 1122.747l-.567 3.574-6.606-1.355.768-3.905 6.405 1.686"/>
        <path fill="#382E65" d="M130.83 1124.757s16.279.793 18.262 3.096c1.982 2.303-19.092-.64-19.092-.64l.83-2.456"/>
        <path fill="#E7895A" d="M85 1104.175L79.893 1108 77 1104.126l5.682-4.126 2.318 4.175"/>
        <path fill="#382E65" d="M78.615 1102s10.865 11.652 10.368 14.638c-.498 2.984-12.983-13.46-12.983-13.46l2.615-1.178"/>
        <path fill="#5A4D8E" d="M142.539 1000s12.254 11.306 12.459 53.241c.203 41.934-14.425 69.759-14.425 69.759H130.26s16.915-52.655-2.09-87.573c0 0-6.36 40.679-40.027 71.797L80 1098.572s24.829-31.189 25.026-70.187c.039-7.728 1.334-11.638-1.354-20.284l38.867-8.101"/>
        <path fill="#DE4E34" d="M135.868 953.31s32.213-8.671 40.395-31.112L180.865 912l6.135 2.04s-1.6 41.3-41.576 52.535l-.636 2.423a67.258 67.258 0 0 0-.303 32.962l4.038 8.345-43.03 9.695s-5.38-21.034-.374-43.277c0 0-9.374-2.07-25.087 41.811L74 1017.326s8.692-58.917 39.881-67.076l21.987 3.06"/>
        <path fill="#E7895A" d="M139 934s1.029 1.92 2.4 2.687c1.373.768.087 2.457-.857 2.303l-.943-.153L139 934"/>
        <path fill="#E7895A" d="M140.881 938.634c.614 2.813-1.027 7.772-3.881 8.366l-2.508 1v6L122 953.124l1.8-24.953L138.124 926l2.758 12.634z"/>
        <path fill="#32375E" d="M127.523 947s5.269-2.224 5.463-6.044c0 0-6.939-4.097-4.58-5.856 2.358-1.76 6.051 2.547 6.051 2.547s-2.06-5.905-1.15-7.34c0 0 9.766.655 8.596-4.968 0 0-2.539-2.546-8.66-3.298-6.118-.751-10.243 8.963-10.243 8.963L127.523 947"/>
        <path fill="#32375E" d="M133 922.584c-1.243-1.198-3.029-1.574-4.72-1.584-4.227-.024-8.42 2.037-11.09 5.449-2.672 3.414-3.767 8.11-2.896 12.421.198.986.5 1.964 1.023 2.812 1.36 2.208 3.936 3.173 6.326 3.995 2.087.718 5.742 2.056 7.59.818 0 0-2.794-9.041-1.013-14.471 1.782-5.428 4.78-9.44 4.78-9.44"/>
        <path fill="#5A4D8E" d="M120.137 951c-2.782 1.803-5.593 3.629-7.882 6.028-2.29 2.398-4.041 5.462-4.242 8.771-.051.832.032 1.756.627 2.344.327.322.77.501 1.215.622 3.438.935 6.914-1.095 9.9-3.04 4.981-3.245 10.045-6.561 13.821-11.152.278-.337.562-.797.35-1.18-.127-.233-.397-.341-.645-.433-3.502-1.287-9.52-1.079-13.144-1.96"/>
        <path fill="#C06659" d="M133.998 955.04c.018.014-.088.186-.306.502-.218.314-.547.777-.978 1.365l-.72.979-.932 1.107-1.076 1.27c-.4.434-.84.878-1.295 1.35-1.834 1.864-4.18 3.981-7.19 5.77a28.83 28.83 0 0 1-4.958 2.36c-1.807.621-3.755 1.085-5.794 1.217-1.021.066-2.021.056-3.034-.07-.507-.078-1.02-.211-1.489-.48-.469-.262-.869-.704-1.049-1.21-.363-1.03-.096-2.026.16-2.89.262-.854.52-1.713.876-2.519.712-1.619 1.743-2.948 2.743-4.12a45.536 45.536 0 0 1 2.96-3.101 96.961 96.961 0 0 1 4.593-4.156c.56-.47.998-.833 1.3-1.07.302-.242.468-.359.482-.343.015.018-.122.167-.394.437-.275.27-.686.663-1.218 1.16-1.058 1.006-2.61 2.438-4.438 4.29-.914.924-1.9 1.954-2.872 3.123-.966 1.168-1.946 2.47-2.607 4.011-.332.77-.575 1.6-.831 2.463-.25.829-.443 1.734-.16 2.493.269.769 1.13 1.162 2.04 1.282.927.112 1.918.125 2.895.06 1.97-.125 3.861-.57 5.626-1.167a29.133 29.133 0 0 0 4.86-2.276c2.97-1.726 5.316-3.776 7.173-5.583l1.316-1.304 1.107-1.228c.345-.383.667-.74.965-1.068.277-.34.532-.655.761-.939.46-.565.821-.998 1.074-1.29.25-.291.39-.436.41-.425"/>
        <path fill="#C06659" d="M133.999 958.004c.029.055-.552.342-1.435 1.084-.88.736-2.01 1.993-3.002 3.811-1.016 1.81-1.852 4.14-2.775 6.758-.473 1.305-1.004 2.674-1.692 4.037-.692 1.357-1.554 2.722-2.724 3.87-1.259 1.277-2.824 2.116-4.352 2.693-.769.284-1.53.543-2.33.674-.79.126-1.647.104-2.38-.271-.739-.362-1.24-1.037-1.507-1.72a4.613 4.613 0 0 1-.294-2.087c.121-1.343.625-2.449 1.019-3.405l.348.217c-.37.413-.921.501-1.352.42-.44-.076-.815-.3-1.077-.591-.529-.622-.49-1.359-.372-1.845.13-.506.353-.84.513-1.046.166-.206.277-.286.29-.276.057.034-.385.426-.582 1.37-.08.451-.053 1.106.389 1.568.22.227.542.402.897.447.352.05.744-.039.983-.326l.787-.947-.439 1.166c-.364.97-.816 2.06-.898 3.286-.04.605.045 1.245.29 1.838.244.59.667 1.128 1.259 1.409.586.293 1.31.315 2.03.192.723-.12 1.465-.377 2.208-.66 1.476-.57 2.943-1.362 4.126-2.564 1.106-1.084 1.937-2.385 2.618-3.699.676-1.32 1.209-2.666 1.696-3.957.946-2.589 1.845-4.96 2.933-6.776 1.066-1.835 2.286-3.092 3.239-3.782.229-.185.456-.319.648-.438a3.66 3.66 0 0 1 .5-.276c.278-.134.428-.194.438-.174"/>
        <path fill="#CC4831" d="M116.661 987c-3.03 0-.988-5.953-.988-5.953 1.63-.225 3.155-1.109 4.554-2.395a10.35 10.35 0 0 0 1.739-1.354c1.203-1.138 2.09-2.489 2.802-3.832.708-1.35 1.254-2.705 1.74-3.996.18-.49.357-.97.532-1.439a68.264 68.264 0 0 0 1.442-3.543c.283-.611.575-1.182.882-1.708.15-.264.3-.514.455-.754-.555 5.197-2.62 18.896-9.251 23.305-1.807 1.2-3.057 1.669-3.907 1.669m12.756-25.15c.382-1.149.583-1.85.583-1.85s-.027.428-.096 1.178c-.163.212-.326.436-.487.672"/>
        <path fill="#B56968" d="M120 979c2.92-2.677 5.316-7.043 7.04-10.94-.18.483-.364.977-.549 1.481-.503 1.33-1.067 2.727-1.798 4.117-.736 1.383-1.653 2.775-2.896 3.947-.553.536-1.159.997-1.797 1.395m8.531-14.59c.395-1.046.717-1.973.966-2.717A15.2 15.2 0 0 1 130 961c-.024.256-.053.55-.088.874-.16.246-.315.504-.47.776-.317.542-.62 1.13-.91 1.76"/>
        <path fill="#3D3671" d="M147 1075.479c-.014.228-2.045.158-4.513.55-2.47.374-4.43 1.064-4.486.846-.057-.19 1.87-1.238 4.412-1.624 2.542-.404 4.607.026 4.587.228M148.997 1072.015c.041.06-.406.444-1.255.876-.847.432-2.117.873-3.579 1.039-1.463.165-2.805.017-3.731-.214-.931-.23-1.456-.505-1.431-.573.05-.177 2.29.535 5.09.2 2.806-.298 4.816-1.49 4.906-1.328M110.994 1067.985c-.07.138-1.881-.663-3.325-2.423-1.46-1.75-1.798-3.54-1.63-3.56.19-.054.788 1.563 2.163 3.202 1.352 1.655 2.902 2.633 2.792 2.78M109.953 1068.999c-.1.023-.24-.345-.735-.704-.483-.357-1.305-.788-2.154-1.298-1.716-1.006-3.14-1.789-3.06-1.966.073-.168 1.652.352 3.41 1.378.87.527 1.64 1.006 2.136 1.536.502.54.492 1.056.403 1.054M137 1038.957c.002.067-1.032.12-2.581-.368-1.555-.472-3.513-1.468-5.689-2.501a188.321 188.321 0 0 1-5.523-2.775c-1.398-.736-2.244-1.231-2.206-1.303.038-.075.955.284 2.405.926 1.448.64 3.431 1.563 5.606 2.616 2.182 1.039 4.099 2.085 5.556 2.638 1.458.57 2.441.671 2.432.767"/>
        <path fill="#E6E4E9" d="M372 715l-60-1.407c.407-1.056 1.042-2 1.926-2.717l-.08.93c9.59-1.417 19.453-2.806 29.145-2.806 8.809 0 17.477 1.149 25.66 4.466 1.13.457 2.253.965 3.349 1.534"/>
        <path fill="#C9C0D5" d="M345.451 797a15.289 15.289 0 0 1-.222-1.433c-.865-8.041-.456-16.508-1.229-24.567h23a9.672 9.672 0 0 0-1.115 2.207c-.788 2.286-.519 4.773-.572 7.187-.133 6.018-2.467 11.934-6.358 16.557l-13.504.049"/>
        <path fill="#DADCE7" d="M382.678 736l-59.272-.418a285.964 285.964 0 0 1-7.591-9.259c-1.86-2.362-3.721-4.837-4.493-7.741-.482-1.818-.438-3.854.239-5.582l59.803 1.377c4.015 2.041 7.645 4.859 9.699 8.804 2.055 3.95 2.253 8.363 1.615 12.819"/>
        <path fill="#615392" d="M366.477 771h-22.725a64.692 64.692 0 0 0-.711-5.29h28.228c-1.625 1.743-3.504 3.347-4.792 5.29m15.047-27.87l-51.751-.593A290.047 290.047 0 0 1 324 736l59 .415c-.322 2.246-.86 4.503-1.476 6.715"/>
        <path fill="#E9E7ED" d="M371.696 766h-28.364c-.424-2.322-1.001-4.59-1.8-6.785h12.444v-7.513h-16.365c-1.876-2.628-4.14-4.976-6.352-7.345-.42-.45-.84-.903-1.259-1.357l52 .589a130.54 130.54 0 0 1-1.1 3.658c-2.061 6.559-4.248 13.341-8.917 18.443l-.287.31"/>
        <g transform="translate(337 751)">
            <mask id="g" fill="#fff">
                <use xlink:href="#f"/>
            </mask>
            <path fill="#E9E7ED" d="M.802 8.478h16.375V.693H.802z" mask="url(#g)"/>
            <text fill="#5575A5" font-family="LucidaGrande, Lucida Grande" font-size="6.572" letter-spacing="-.09" mask="url(#g)">
                <tspan x="-2.815" y="3.794">T</tspan> <tspan x="1.251" y="3.794" letter-spacing=".37">e</tspan> <tspan x="5.282" y="3.794" letter-spacing=".501">x</tspan> <tspan x="9.814" y="3.794">t</tspan>
            </text>
        </g>
        <path fill="#8179AA" d="M349.798 803c-2.737 0-4.218-3.023-4.798-5.951l13-.049a25.576 25.576 0 0 1-4.848 4.604c-.978.708-2.07 1.367-3.268 1.394l-.086.002"/>
        <path fill="#E7895A" d="M359.784 799l.216 4.5-3.846.5-.154-4.963 3.784-.037"/>
        <path fill="#382E65" d="M356.27 803.425s14.394-2.608 16.558-.768C374.992 804.497 356 806 356 806l.27-2.575"/>
        <path fill="#E7895A" d="M370 771.851L367.392 776 364 774.533l2.943-4.533 3.057 1.851"/>
        <path fill="#382E65" d="M363.639 774s13.523 5.745 14.333 8.49c.81 2.744-15.972-6.471-15.972-6.471l1.639-2.019"/>
        <path fill="#755D98" d="M361 647c5.755-3.569 3.746-3.334 10.494-2.99 1.527.077-4.972-2.157-3.697-3.01 1.654-1.107 4.617-5.752 4.203-7.711-.988-4.694 8.412-3.152 3.652-3.285-6.47-.18-12.088 5.446-18.552 5.116-2.466-.126-4.793-1.119-7.158-1.831-6.897-2.077-15.771-.971-19.191 5.411-.917 1.708-1.355 3.656-2.364 5.31-2.864 4.698-9.148 5.62-13.75 8.603-5.116 3.315-8.152 9.631-7.565 15.731.246 2.54 1.186 5.175 3.234 6.678 0 0 6.963 8.95 22.724 0 8.962-5.088 14.083-15.416 22.97-20.59 6.744-3.926 18.672-3.512 18.672-3.512"/>
        <path fill="#5A4D8E" d="M350 671.027c2.478-2.805 40.462 38.666 48.57 43.033 8.107 4.365 6.246 0 6.246 0l-16.272-18.087L357.254 661 350 671.027"/>
        <path fill="#BCB1CC" d="M334.608 657.254l-.188.148c-10.439 8.305-23.624 24.623-19.717 52.598l36.88-4.352s-3.686-6.218 1.16-21.908c.368-1.191 3.785-3.438 4.257-4.74 1.146-3.163.024-.234 1-3 .759-2.149 1.231-4.725 1.525-7 .54-4.192 0-7 0-7l-3.867-7.002c-6.873-3.314-15.065-2.467-21.05 2.256z"/>
        <path fill="#5A4D8E" d="M336.153 668.742s3.074 32.637 15.375 36.947C363.83 710 385.973 710 385.973 710s1.7-2.271-21.846-7.902c-.977-.234-2-.473-3.065-.72 0 0-13.35-7.723-12.66-31.334a17.796 17.796 0 0 0-.173-3.2c-.53-3.473-2.207-10.447-7.098-9.802-6.491.857-4.978 11.7-4.978 11.7"/>
        <path fill="#E7895A" d="M379.306 710.097s4.426-.218 6.095 0c1.667.218 4.643 2.757 6.384 3.773 1.741 1.015 1.306 2.467.435 2.467 0 0-2.358.943-6.076 0-3.718-.944-8.144-3.483-8.144-3.483s2.176-.653 1.306-2.757"/>
        <path fill="#F6BE5C" d="M315 710.347s27.847 33.357 33.418 43.241c5.57 9.884 3.093 45.006 4.952 45.977 1.855.972 8.964.012 8.964.012l.44-26.655.3-13.958a51.81 51.81 0 0 0-3.402-19.614l-7.542-19.737s30.786 1.909 25.375 17.297c-6.802 19.334-12.997 33.975-12.997 33.975l6.19 2.47s29.057-36.445 22.276-52.506c-6.778-16.061-41.463-14.827-41.463-14.827L315 710.347"/>
        <path fill="#755D98" d="M376.651 648.883s-4.708 12.025-15.896 4.497c0 0-8.503.367-6.578 1.62 0 0-2.245-1.017-5.177-2-3.298-1.106-7.358-2.607-8-11 0 0 .382-5.12 3.872-7.225 3.492-2.105 5.938-.432 5.938-.432s1.67-7.042 7.179-9.629c5.508-2.586 25.577-1.048 25.062 10.443 0 0-1.517 9.78-6.4 13.726z"/>
        <path fill="#E7895A" d="M379.91 636.962s-1.162 18.726-10.985 18.765c-6.155.025-8.201-2.376-8.201-2.376s-3.358 4.405-3.088 9.417c0 0-5.029 1.998-5.995-5.51 0 0 4.552-4.573 5.812-8.871 0 0-.378-1.986.287-4.21 0 0-.547-4.416 1.578-5.778 2.124-1.362 4.003.6 3.615 2.229 0 0 7.857 5.11 16.977-3.666"/>
        <path fill="#E7895A" d="M376.197 647.6s.122 2.175 1.04 3.45c.92 1.276-.96 2.263-1.75 1.725l-.79-.538 1.5-4.637"/>
        <path fill="#B86F4F" d="M372.565 642.46c.223.676.426 1.187.767 1.558.165.189.355.359.586.51.226.158.486.286.767.48-.33.143-.68.188-1.014.119-.34-.051-.65-.25-.898-.516-.487-.558-.572-1.462-.208-2.15M371.803 649.805c-.072.58-.117.995.011 1.25.053.139.16.275.297.44.148.156.323.315.508.543a1.318 1.318 0 0 1-.825-.034 1.198 1.198 0 0 1-.666-.635 1.185 1.185 0 0 1 .05-.97c.139-.274.35-.488.625-.594"/>
        <path fill="#5A4D8E" d="M358.994 661.783c.028.018-.041.245-.335.508-.288.27-.812.497-1.454.593-.647.08-1.382.165-2.263.082a3.29 3.29 0 0 1-1.35-.443c-.44-.266-.813-.663-1.12-1.106-1.181-1.8-1.5-3.814-1.47-5.208.026-1.412.34-2.23.405-2.209.097.022-.059.859.023 2.197.074 1.318.459 3.195 1.527 4.823.27.39.581.722.93.941a2.9 2.9 0 0 0 1.126.4c.773.109 1.544.077 2.148.058.61-.034 1.078-.168 1.367-.342.295-.166.428-.328.466-.294M339.997 665c.038.025-.29.607-.91 1.641-.646 1.058-1.548 2.542-2.656 4.363-2.215 3.688-5.291 8.81-7.685 14.89-1.18 3.042-2.041 6.034-2.561 8.801-.522 2.768-.727 5.305-.705 7.432.015 2.13.197 3.85.382 5.03.18 1.18.31 1.832.257 1.843-.022.006-.078-.152-.168-.457-.079-.304-.228-.753-.337-1.343-.263-1.176-.518-2.91-.595-5.065-.079-2.154.08-4.732.577-7.543.495-2.811 1.349-5.847 2.54-8.922 2.423-6.147 5.583-11.263 7.901-14.898a157.885 157.885 0 0 1 2.834-4.263c.689-.994 1.088-1.53 1.126-1.508"/>
        <path fill="#D09B49" d="M333.755 712c.078-.01.256.628.244 1.686-.006 1.055-.264 2.53-.966 4.013-.707 1.482-1.702 2.642-2.53 3.347-.831.71-1.454 1.007-1.498.946-.062-.08.453-.497 1.164-1.255a13.215 13.215 0 0 0 2.261-3.295 12.67 12.67 0 0 0 1.103-3.786c.13-1.007.12-1.648.222-1.656M334.001 725c.019-.014.217.196.576.607a161.157 161.157 0 0 1 7.018 8.714c2.212 2.978 4.75 6.623 7.004 10.99 1.123 2.184 2.17 4.546 3.026 7.078.864 2.53 1.474 5.234 1.942 8.013 1.775 11.128 2.333 21.318 2.42 28.683.044 3.685-.027 6.666-.112 8.724a67.106 67.106 0 0 1-.125 2.368c-.038.541-.068.825-.092.823-.021 0-.035-.285-.04-.828l.002-2.37c.007-2.056.008-5.032-.096-8.707-.202-7.346-.834-17.51-2.601-28.589-.464-2.76-1.063-5.426-1.905-7.924-.835-2.499-1.86-4.838-2.959-7.006-2.2-4.34-4.685-7.99-6.84-10.993-2.166-3-4.023-5.358-5.29-7l-1.453-1.896c-.328-.437-.493-.673-.475-.686M350.17 716c.22-.013.453.915.941 1.982.475 1.072 1.033 1.9.855 2.008-.157.106-1.058-.62-1.58-1.79-.532-1.17-.421-2.198-.217-2.2M348.984 711.992c-.154.108-1.188-.848-2.548-1.928-1.355-1.086-2.534-1.897-2.43-2.045.095-.138 1.483.468 2.887 1.593 1.409 1.12 2.235 2.282 2.09 2.38M356 718.505c-.008-.02.235-.156.71-.398.478-.241 1.198-.56 2.153-.899a22.447 22.447 0 0 1 8.462-1.178c1.814.085 3.795.432 5.834 1.096 2.022.683 4.16 1.73 5.88 3.517.849.897 1.57 1.984 2.023 3.206.466 1.217.711 2.529.831 3.858.117 1.331.115 2.682.1 4.044a50.243 50.243 0 0 1-.202 4.154c-.245 2.813-.975 5.508-1.916 7.975-.933 2.476-2.023 4.769-3.014 6.966-2.004 4.383-3.81 8.332-5.328 11.657-1.54 3.308-2.737 6.006-3.694 7.817a22.533 22.533 0 0 1-1.196 2.027c-.302.446-.481.662-.497.653-.02-.015.125-.257.39-.721a34.34 34.34 0 0 0 1.087-2.073c.88-1.83 2.018-4.56 3.505-7.892l5.208-11.714c.976-2.205 2.05-4.5 2.964-6.943.922-2.443 1.625-5.056 1.866-7.814.133-1.377.183-2.748.204-4.1.016-1.356.019-2.689-.092-3.98-.11-1.291-.342-2.546-.774-3.694a8.984 8.984 0 0 0-1.88-3.017c-1.613-1.7-3.666-2.739-5.631-3.424-1.983-.668-3.917-1.036-5.695-1.145a23.241 23.241 0 0 0-8.36.963c-1.912.602-2.91 1.116-2.938 1.06"/>
        <g transform="translate(355 959)">
            <mask id="i" fill="#fff">
                <use xlink:href="#h"/>
            </mask>
            <path fill="#C9C0D5" d="M.693 1.161h.916V.88H.693z" mask="url(#i)"/>
        </g>
        <path fill="#BDB4CE" d="M355 960l-8-90.558c.019-.154.055-.302.106-.442L355 960"/>
        <path fill="#F3D0A3" d="M354.635 960l-.024-.306L347 868.708c.2-.575.642-1.019 1.202-1.31.5-.26 1.097-.398 1.691-.398.603 0 1.205.141 1.716.437 1.709 1.001 2.49 3.011 2.957 4.914.466 1.903.77 3.927 1.947 5.503.367.49.85.947 1.46 1.063.104.02.206.029.308.029.955 0 1.784-.816 2.454-1.549 2.119-2.312 4.582-4.501 7.629-5.345a8.68 8.68 0 0 1 2.295-.305c2.434 0 4.868 1 6.07 3.042.859 1.453.994 3.2 1.11 4.878l2.79 40.449c.432 6.268.846 12.693-.975 18.712-1.579 5.215-16.171 19.883-24.034 21.092l-.985.08"/>
        <path fill="#E7895A" d="M345.391 1077.957l-10.502 48.71-4.926-1.349 4.118-48.724-8.215-50.198-7.304 46.792-16.225 53.663L298 1127l7.774-53.42-2.13-65.022L349 1005z"/>
        <path fill="#382E65" d="M360 917l-1.09 3.485-23.371 22.363-20.953.302-7.604 13.097 3.053 11.845a39.58 39.58 0 0 1-2.187 26.018L303 1008.777l45.776 5.223c1.503-34.452.8-37.262-4.878-56.847l24.473-32.021L370 923l.93-3.558L371 882l-7.252 1.306L360 917z"/>
        <path fill="#382E65" d="M345 881.364c-2.285 1.234-17.064 38.399-17.064 38.399l.852 23.768L315 946l.002-27.236L339.087 877l5.913 4.364"/>
        <path fill="#E7895A" d="M336 924s1.029 1.92 2.4 2.687c1.373.768.087 2.457-.857 2.303l-.943-.153L336 924"/>
        <path fill="#E7895A" d="M335 920c.468.83 1.445 3.497 2.93 8 .95 2.382-.476 8.089-2.93 9l-1.582 1 .783 7.053-11.228.947L321 923.87l12.418-3.87c.52-.948 1.047-.948 1.582 0z"/>
        <path fill="#755D98" d="M326.432 940s4.811-4.128 4.402-7.817c0 0-7.094-2.913-5.17-4.949 1.925-2.031 6.03 1.56 6.03 1.56s-2.831-5.361-2.204-6.868c0 0 9.193-.797 7.237-6.015 0 0-2.76-2.072-8.574-1.9-5.815.172-8.153 10.089-8.153 10.089l6.432 15.9"/>
        <path fill="#755D98" d="M328.969 914.497c-4.71-1.261-10-.08-13.735 3.068-3.736 3.146-5.816 8.174-5.403 13.056.29 3.426 1.698 7.006.367 10.174-.685 1.63-2.01 2.885-3.309 4.077-3.797 3.486-7.724 6.912-10.666 11.15-2.944 4.237-4.847 9.464-4.034 14.567.347 2.168 1.192 4.282 2.606 5.955.743.88 1.635 1.634 2.29 2.584 2.335 3.389 1.022 8.127 2.453 11.99 1.837 4.96 7.62 7.175 12.857 7.709 7.188.732 14.937-.796 20.233-5.733 5.299-4.937 7.27-13.735 3.19-19.725-2.02-2.965-5.453-5.573-5.118-9.15.21-2.225 1.88-3.988 2.839-6 1.923-4.032.649-9.338-2.89-12.044-1.307-.996-2.44-2.061-3.649-3.175-1.207-1.114-.69-2.205-.69-3 0-.795.835-2.772 1.42-3.9.872-1.68-.187-3.718-1.42-5.155-1.234-1.438-2.753-2.864-2.932-4.752-.134-1.437.554-2.807 1.222-4.084l3.955-7.562"/>
        <path fill="#F0B959" d="M304.26 1009l-3.26 25.092 24.3 3.908 1.04-9.926 1.36 9.686H352l-2.608-23.58-45.133-5.18"/>
        <path fill="#3D3671" d="M334.999 1030.99c-.082.152-3.57-1.388-7.982-3.029-4.408-1.652-8.07-2.778-8.016-2.944.024-.076.973.108 2.475.515a69.466 69.466 0 0 1 5.775 1.876c2.22.83 4.18 1.687 5.57 2.36 1.39.671 2.216 1.15 2.178 1.222M325 1035.984c-.026.095-1.406-.24-3.646-.706a137.867 137.867 0 0 0-8.805-1.523c-3.458-.485-6.603-.842-8.877-1.128-2.276-.282-3.68-.493-3.672-.583.008-.09 1.427-.041 3.716.125 2.286.168 5.446.453 8.92.94 3.473.49 6.593 1.131 8.818 1.717 2.228.587 3.568 1.08 3.546 1.158M351 1034.18c.002.104-1.4.21-3.664.344-2.261.137-5.387.313-8.834.557-3.45.246-6.57.513-8.83.7-2.26.185-3.662.28-3.672.176-.01-.098 1.374-.379 3.626-.698 2.253-.322 5.376-.672 8.834-.918 3.457-.246 6.595-.341 8.865-.341 2.27-.002 3.675.08 3.675.18M349.999 1020.317c.03.072-.525.416-1.55.593-1.008.184-2.514.127-3.97-.571-1.453-.7-2.443-1.845-2.938-2.751-.508-.915-.592-1.566-.518-1.586.097-.036.339.542.91 1.332.561.788 1.515 1.772 2.83 2.406 1.317.632 2.677.76 3.636.703.97-.049 1.566-.224 1.6-.126"/>
        <path fill="#3D3671" d="M348.95 1039c-.172.02-.737-3.992-1.263-8.964-.523-4.97-.809-9.016-.637-9.036.173-.02.738 3.994 1.264 8.966.523 4.97.808 9.016.635 9.034"/>
        <path fill="#C9A57D" d="M306.003 1075.046c.072-.193 1.401.253 3.04.755 1.637.507 2.983.887 2.957 1.094-.022.197-1.448.142-3.132-.379-1.684-.517-2.934-1.287-2.865-1.47"/>
        <path fill="#C9A57D" d="M312 1074.843c.033.204-1.31.716-3.017.638-1.709-.064-3.025-.684-2.982-.884.041-.22 1.366.042 3 .102 1.634.072 2.97-.078 2.998.144M341 1075.384c.04.208-1.263.772-2.935 1.088-1.673.322-3.054.272-3.065.056-.013-.218 1.322-.514 2.967-.832 1.644-.312 2.99-.526 3.032-.312M339.996 1074.06c.066.185-.79.698-1.883 1.217-1.092.518-2.023.851-2.107.676-.084-.172.728-.79 1.84-1.317 1.11-.527 2.087-.755 2.15-.576"/>
        <path fill="#E7895A" d="M343.724 881s6.547-3.287 6.45-3.703c-.281-1.21-3.767.294-3.767.294s5.327-5.209 4.507-5.941c-.501-.448-3.764 2.2-3.764 2.2s2.056-3.102 1.413-3.772c-.628-.652-3.673 2.994-3.673 2.994s1.124-2.348.472-2.919c-.448-.393-6.362 9.011-6.362 9.011l4.724 1.836M364.515 882.56s-2.852-6.493-2.482-6.755c1.076-.765 2.768 2.503 2.768 2.503s-.533-7.239.63-7.308c.712-.04 1.423 3.973 1.423 3.973s.563-3.635 1.546-3.764c.956-.124.788 4.53.788 4.53s.767-2.49 1.687-2.537c.632-.032-1.335 10.798-1.335 10.798l-5.025-1.44"/>
        <path fill="#F6F4F6" d="M221 1039.81L237.825 999s46.662 15.643 46.171 16.621c-.491.976-20.361 41.379-20.361 41.379L221 1039.81"/>
        <path fill="#3D3671" d="M246 1006c.007.005-.04.102-.14.279l-.446.768c-.417.7-.978 1.65-1.661 2.803a204.826 204.826 0 0 0-5.206 9.408 206.896 206.896 0 0 0-4.692 9.683l-1.335 2.977c-.149.322-.27.59-.37.808-.088.183-.139.277-.148.274-.01-.005.02-.107.09-.3.086-.223.19-.497.314-.829.278-.722.704-1.754 1.246-3.022a151.556 151.556 0 0 1 9.91-19.116 94.754 94.754 0 0 1 1.748-2.753l.497-.737c.117-.165.183-.25.192-.243"/>
        <path fill="#3D3671" d="M268 1016.998c-.005.01-.101-.02-.28-.086l-.778-.305c-.673-.271-1.641-.675-2.834-1.184a355.359 355.359 0 0 1-9.253-4.12 356.51 356.51 0 0 1-9.137-4.365 150.99 150.99 0 0 1-2.736-1.388c-.292-.156-.535-.287-.734-.392-.167-.095-.253-.147-.248-.156.005-.01.1.025.275.1.209.092.46.205.764.341l2.779 1.298c2.389 1.117 5.61 2.621 9.17 4.283 3.576 1.631 6.812 3.104 9.212 4.2l2.79 1.271c.3.144.55.262.756.358.17.087.259.136.254.145M271 1013c.007.005-.05.137-.172.384l-.549 1.066-2.06 3.903c-1.746 3.289-4.167 7.828-6.716 12.907-2.548 5.081-4.697 9.757-6.158 13.183a209.107 209.107 0 0 0-1.703 4.07l-.46 1.108c-.11.253-.17.384-.18.379-.01-.003.03-.142.12-.401l.405-1.13c.353-.983.903-2.389 1.61-4.114 1.412-3.453 3.532-8.153 6.082-13.24 2.553-5.082 5.006-9.609 6.802-12.87l2.15-3.853.6-1.04c.14-.236.219-.358.228-.352"/>
        <path fill="#3D3671" d="M270 1020.998c-.036.084-5.886-2.537-13.065-5.848-7.18-3.313-12.97-6.064-12.935-6.148.036-.082 5.885 2.534 13.065 5.848 7.18 3.313 12.97 6.064 12.935 6.148M248.998 1015.995c-.052.066-1.082-.533-2.458-1.074-1.373-.55-2.56-.829-2.54-.906.013-.07 1.257.096 2.664.658 1.41.556 2.382 1.268 2.334 1.322"/>
        <path fill="#3D3671" d="M247.998 1015.995c-.05.07-1.059-.585-2.438-1.125-1.375-.55-2.575-.769-2.56-.85.006-.07 1.26.03 2.674.595 1.418.556 2.374 1.328 2.324 1.38M247.999 1017.993c-.048.089-1.12-.684-2.495-1.5-1.374-.822-2.533-1.38-2.503-1.48.022-.091 1.242.318 2.636 1.153 1.396.827 2.406 1.75 2.362 1.827M253.794 1016.263c-.006-.02.098-.096.305-.17.207-.068.532-.15.93-.037.39.103.86.503.96 1.183.05.343-.067.712-.25.981a1.797 1.797 0 0 1-.73.64 1.356 1.356 0 0 1-.913.102c-.299-.077-.555-.27-.74-.507-.383-.475-.444-1.169-.244-1.604.186-.44.494-.656.71-.718.22-.068.344-.02.342-.002 0 .028-.121.028-.305.125-.179.094-.426.315-.56.693-.14.37-.072.904.252 1.29.308.396.856.549 1.35.305.482-.223.88-.767.822-1.263-.057-.513-.422-.882-.75-.992-.34-.128-.646-.094-.849-.066-.207.031-.322.065-.33.04M262 1020.988c-.028.095-1.44-.388-3.102-1.217-1.666-.823-2.938-1.674-2.897-1.763.04-.092 1.37.605 3.023 1.426 1.651.82 3.007 1.454 2.975 1.554"/>
        <path fill="#3D3671" d="M259 1019.796c-.024.102-.783-.042-1.63-.498-.849-.456-1.423-1.028-1.366-1.112.057-.092.701.32 1.519.758.814.44 1.505.744 1.476.852M249.003 1026.63l.221.07.598.218 2.213.831 7.648 2.947-.175.059 3.99-6.69.14-.232.08.223-10.577-3.792.145-.049-4.283 6.416c-.04-.018.33-.682 1.042-1.818.708-1.14 1.75-2.762 3.034-4.732l.053-.081.093.033c2.948 1.04 6.616 2.331 10.598 3.734l.177.062-.095.16-.139.23-4.013 6.678-.063.103-.113-.044-7.68-3.105c-.898-.373-1.622-.671-2.154-.891l-.562-.24-.178-.09M245.795 1028.263c-.006-.02.097-.096.307-.17a1.53 1.53 0 0 1 .928-.037c.391.103.862.503.958 1.183.05.343-.065.712-.25.981a1.784 1.784 0 0 1-.729.64 1.352 1.352 0 0 1-.91.102 1.4 1.4 0 0 1-.742-.507c-.385-.475-.446-1.169-.244-1.604.186-.44.494-.656.71-.718.22-.068.344-.02.341-.002.001.028-.12.028-.304.125-.18.094-.427.315-.56.693-.141.37-.072.904.251 1.29.31.396.857.549 1.352.305.48-.224.88-.767.82-1.263-.058-.513-.42-.882-.75-.992-.338-.128-.645-.094-.849-.066-.206.031-.323.065-.329.04M255 1032.988c-.028.095-1.439-.388-3.101-1.217-1.666-.823-2.937-1.674-2.898-1.763.042-.092 1.371.607 3.024 1.426 1.652.82 3.006 1.454 2.974 1.554M251 1032.796c-.024.102-.783-.042-1.63-.498-.849-.456-1.423-1.028-1.366-1.112.057-.092.7.32 1.517.758.816.44 1.505.744 1.478.852M241.003 1038.63l.221.07.598.218 2.211.831 7.649 2.947-.174.059 3.99-6.69.138-.232.083.223-10.578-3.792.145-.049-4.283 6.416c-.04-.018.33-.682 1.04-1.818.708-1.14 1.75-2.762 3.036-4.732l.053-.081.093.033c2.948 1.04 6.616 2.331 10.598 3.734l.177.062-.096.16-.138.23-4.015 6.678-.061.103-.113-.044c-3.117-1.26-5.767-2.331-7.68-3.107l-2.156-.89c-.224-.096-.41-.174-.56-.24l-.178-.088M273.999 1016c.076.039-3.441 7.235-7.859 16.071-4.418 8.837-8.062 15.968-8.139 15.929-.078-.04 3.442-7.235 7.86-16.073 4.417-8.835 8.061-15.967 8.138-15.927"/>
        <path fill="#3D3671" d="M277 1022.992c-.028.085-1.842-.513-4.05-1.337-2.21-.826-3.978-1.562-3.95-1.647.028-.086 1.84.515 4.05 1.337 2.21.824 3.978 1.56 3.95 1.647"/>
        <path fill="#3D3671" d="M272.992 1026c-.074.04-.762-1.442-1.308-3.392-.553-1.95-.747-3.592-.667-3.608.09-.017.423 1.58.967 3.507.542 1.928 1.091 3.454 1.008 3.492M270.875 1030c-.108-.007-.14-.684-.072-1.513.07-.829.214-1.494.322-1.487.108.007.14.682.07 1.511-.068.829-.212 1.494-.32 1.489"/>
        <path fill="#3D3671" d="M273 1028.866c-.01.112-.685.078-1.501.208-.818.122-1.468.366-1.498.258-.03-.094.605-.518 1.464-.646.857-.138 1.548.08 1.535.18M239.001 1007.008c.045-.094 1.133.647 2.509 1.462 1.373.823 2.517 1.413 2.49 1.517-.027.097-1.23-.338-2.618-1.17-1.392-.827-2.424-1.723-2.38-1.809"/>
        <path fill="#3D3671" d="M243.996 1002c.08.045-.973 2.097-2.351 4.582-1.379 2.487-2.561 4.464-2.64 4.417-.08-.044.972-2.096 2.35-4.581 1.379-2.486 2.561-4.464 2.64-4.417M240.122 1006c-.108.007-.25-.433-.318-.986-.068-.552-.034-1.006.072-1.014.11-.007.252.435.32.988.068.552.034 1.004-.074 1.012"/>
        <path fill="#3D3671" d="M242 1004.572c.02.106-.86.384-1.965.622-1.105.236-2.015.342-2.035.234-.018-.106.86-.382 1.965-.622 1.105-.236 2.016-.34 2.035-.234"/>
        <path fill="#F3D0A3" d="M268 1037.874s2.11-6.942 2.565-6.937c1.317.016.45 3.66.45 3.66s4.36-6.182 5.284-5.552c.57.385-1.534 4.056-1.534 4.056s2.82-2.614 3.648-2.142c.807.465-2.383 4.136-2.383 4.136s2.221-1.565 2.949-1.061c.5.346-8.117 7.966-8.117 7.966l-2.862-4.126"/>
        <path fill="#E7895A" d="M268 1037.874s2.11-6.942 2.565-6.937c1.317.016.45 3.66.45 3.66s4.36-6.182 5.284-5.552c.57.385-1.534 4.056-1.534 4.056s2.82-2.614 3.648-2.142c.807.465-2.383 4.136-2.383 4.136s2.221-1.565 2.949-1.061c.5.346-8.117 7.966-8.117 7.966l-2.862-4.126M224.591 1195.265l-1.492 5.203-6.53-1.738 1.784-5.69 6.238 2.225"/>
        <path fill="#382E65" d="M215.916 1198.801s17.135.07 19.361 2.287c2.225 2.218-20.077.205-20.077.205l.716-2.492"/>
        <path fill="#E7895A" d="M172 1176.652l-5.106 3.348-2.894-3.39 5.684-3.61 2.316 3.652"/>
        <path fill="#382E65" d="M163.816 1176s11.703 12.43 11.166 15.613c-.534 3.185-13.982-14.357-13.982-14.357l2.816-1.256M228.539 1073s12.254 11.308 12.459 53.241c.203 41.934-14.425 69.759-14.425 69.759H216.26s16.915-52.654-2.09-87.573c0 0-6.36 40.679-40.027 71.796l-8.143-8.651s24.829-31.189 25.026-70.189c.039-7.725 1.334-11.634-1.354-20.282l38.867-8.101"/>
        <path fill="#1B1A32" d="M234 1148.479c-.014.23-2.045.158-4.513.55-2.47.376-4.43 1.064-4.486.846-.057-.19 1.87-1.238 4.412-1.626 2.542-.402 4.607.028 4.587.23M234.997 1145.015c.041.062-.406.444-1.255.876-.847.432-2.117.872-3.579 1.04-1.463.163-2.805.015-3.731-.216-.931-.23-1.456-.504-1.431-.572.023-.082.506.024 1.293.131.93.126 2.282.25 3.797.068 2.806-.296 4.816-1.489 4.906-1.327M196.994 1139.984c-.07.14-1.88-.663-3.325-2.423-1.46-1.75-1.797-3.54-1.63-3.56.19-.053.787 1.562 2.163 3.202 1.352 1.655 2.902 2.634 2.792 2.781M195.953 1142c-.1.02-.24-.348-.735-.705-.483-.357-1.305-.788-2.154-1.3-1.717-1.005-3.14-1.789-3.06-1.964.073-.168 1.652.35 3.41 1.377.87.528 1.64 1.007 2.136 1.535.502.54.492 1.058.403 1.056M224 1111.956c.002.07-1.032.12-2.581-.367-1.555-.47-3.513-1.467-5.689-2.501a190.844 190.844 0 0 1-5.523-2.774c-1.398-.738-2.244-1.231-2.206-1.305.038-.073.955.285 2.405.926 1.448.642 3.431 1.563 5.606 2.616 2.182 1.04 4.099 2.087 5.558 2.639 1.456.571 2.44.67 2.43.766"/>
        <path fill="#F6BE5C" d="M183 1032.996l7.181 55.422 45.179.582-6.75-41.748s22.33 21.12 32.07 12.363c9.738-8.756 11.32-17.462 11.32-17.462l-5.304-3.634s-8.07 15.31-15.405 10.496c-8.245-5.411-26.68-27.526-44.066-24.78-11.517 1.82-22.448-4.6-24.225 8.761"/>
        <path fill="#B86F4F" d="M214 1004s1.029 1.92 2.4 2.687c1.373.768.087 2.457-.857 2.303l-.943-.153-.6-4.837"/>
        <path fill="#E7895A" d="M210.42 997a8.377 8.377 0 0 1 2.566 3c.41.806 1.415 3.806 3.014 9 .948 2.38-.562 9.089-3.014 10h-2.566l.782 6.052-11.227.948-2.975-26h13.42"/>
        <path fill="#5A4D8E" d="M207.561 1013.083c0-1.083-5.938-3.196-4.238-4.993 1.132-1.2 2.465-1.2 3.997 0-.213-.06-.82-1.423-1.82-4.09-1.5-4 9.214-4.384 7.486-9-1.728-4.616-2.856-1.153-7.986-1-5.131.153-7 11.933-7 11.933-.246 7.116.087 11.805 1 14.067.348.864 1.907.864 4.677 0 0 0 4.243-3.653 3.884-6.917z"/>
        <path fill="#5A4D8E" d="M210 1000c1-.773 3.539-1.482 4-2.576.46-1.095.118-3.807-1.014-4.424-1.317-.72-3.45-.19-4.986 0-2.306.286-4.687 1.22-7 1-2.315-.22-4.997 1.484-5.71 3.424-.145.4-.266.9-.725 1.016-.197.05-.406.009-.609-.008-1.795-.149-3.054 1.693-2.95 3.268.102 1.575 1.041 3.01 1.457 4.544.911 3.362-.692 7.121.99 10.247 1.326 2.46 5.502 4.634 8.383 2.864l-3.682-14.232L207 1001l3-1z"/>
        <path fill="#ED9E95" d="M617.133 1141c-27.688 0-50.133-1.79-50.133-4 0-.749 2.577-1.45 7.063-2.05-.154 1.327-.203 2.037-.137 2.05h.002c.072 0 .26-.732.552-2.105 3.92-.505 9.213-.935 15.458-1.256-.275 2.163-.384 3.345-.297 3.36h.003c.09 0 .373-1.19.816-3.388 7.366-.37 16.021-.59 25.309-.611l18.231 7.769c-5.27.149-10.948.231-16.867.231M319.5 1132c-19.605 0-35.5-1.444-35.5-3.226 0-.27.365-.533 1.054-.784l19.476-.3c2.167.134 4.556.244 6.573.244 2.009 0 3.648-.109 4.333-.413l13.497-.208-.107.999s5.923-.453 10.825-1.165l9.506-.147c3.694.508 5.843 1.119 5.843 1.774 0 1.782-15.893 3.226-35.5 3.226"/>
        <path fill="#D4CBDC" d="M521 1126h-77.971l31.086-.505L521 1126m-256.503 0h-22.45a197.485 197.485 0 0 0-.047-3l22.655.245-.158 2.755"/>
        <path fill="#CDCBD9" d="M285 1128.422c.21-.096.447-.192.716-.284l16.385-.3c.727.068 1.519.138 2.344.204l-19.445.38m30.333-.594a.766.766 0 0 0 .273-.236l13.222-.242-.02.214-13.475.264m24.176-.474c.386-.07.765-.144 1.134-.22l7.348-.134c.349.056.684.112 1.009.168l-9.49.186"/>
        <path fill="#8179AA" d="M589.028 1136h-.003c-.075-.014.02-1.09.26-3.06.207-1.69.52-4.037.928-6.94l.787.01c-.507 2.884-.933 5.22-1.259 6.905-.387 2.001-.635 3.085-.713 3.085M574.027 1137h-.002c-.057-.012-.015-.712.118-2.02.188-1.853.556-4.923 1.075-8.98l.782.01-.084.527a.143.143 0 0 0-.028.094c.001.01.004.019.008.03-.593 3.691-1.067 6.51-1.393 8.264-.252 1.354-.415 2.075-.476 2.075M577.442 1127.511c-.835 0-1.353-.086-1.432-.264a.134.134 0 0 1-.01-.034.172.172 0 0 1 .033-.112c.11-.17.499-.38 1.101-.612l7.866.102c-.283.056-.57.108-.862.16-2.764.494-5.222.76-6.696.76"/>
        <path fill="#D4CBDC" d="M221 1125h-11c.398-1.04.764-2.041 1.1-3l9.066.087c.3.967.576 1.935.834 2.913M188.186 1126h-29.703l-6.483-3.404V1122l37 .398a113.932 113.932 0 0 1-.814 3.602"/>
        <path fill="#3B3269" d="M310.086 1128.817c-2.07-.109-4.514-.376-6.729-.662a187.424 187.424 0 0 1-6.401-.95l.908-3.034.024.001c.224.012 2.1.114 4.533.353 4.633.459 11.29 1.42 12.404 3.222.14.224.142.41.027.562a.78.78 0 0 1-.293.22c-.722.347-2.412.396-4.473.288M328.665 1128.291l.282-1.246.05-.21.384-1.694s.728-.06 1.883-.125a97.746 97.746 0 0 1 4.531-.16c2.215-.024 4.622.038 6.552.31 1.74.243 3.09.657 3.564 1.329.733 1.036-1.909 1.53-5.329 1.748-.371.025-.752.047-1.14.064-4.913.225-10.777-.016-10.777-.016M236.779 1166l-13.833-7.167c.656-10.587.271-22.238-2.374-33.315a82.724 82.724 0 0 0-.83-3.19l21.202.226a193.068 193.068 0 0 1 .054 3.86c.073 15.279-1.8 28.693-4.22 39.586m-5.692-18.044c-.658 0-1.403.038-2.193.136-2.648.317-4.654 1.174-4.594 1.329.008.024.05.034.123.034.485 0 2.315-.459 4.548-.725 2.57-.32 4.685-.262 4.7-.45.014-.116-1.04-.324-2.584-.324m-6.378-1.896c-.063 0-.097.01-.104.031-.026.074.52.37 1.489.62.68.176 1.577.309 2.581.309.417 0 .853-.023 1.3-.075 1.52-.182 2.841-.66 3.722-1.127.883-.467 1.348-.88 1.306-.948-.007-.011-.02-.016-.041-.016-.32 0-2.328 1.154-5.062 1.453-.57.072-1.12.1-1.633.1-.905 0-1.7-.087-2.316-.173-.616-.087-1.053-.174-1.242-.174m-24.58.952L184 1138.656c1.514-4.113 2.9-8.511 4.035-13.138.286-1.16.554-2.331.806-3.518l21.873.234c-.334 1.05-.698 2.144-1.095 3.284a144.878 144.878 0 0 1-9.492 21.494m-9.734-9.085c-.05 0-.082.01-.09.03-.073.164 1.248.903 2.843 1.851.788.482 1.552.89 2 1.226.449.329.582.665.674.665l.008-.001c.083 0 .093-.489-.373-.996-.462-.498-1.176-.95-1.984-1.448-1.43-.847-2.729-1.327-3.078-1.327m1.598-3.73c-.001 0-.005 0-.008.002-.16.02.163 1.941 1.565 3.818 1.285 1.747 2.869 2.615 3.15 2.615.022 0 .037-.005.042-.016.105-.159-1.383-1.208-2.68-2.983-1.3-1.731-1.877-3.436-2.069-3.436"/>
        <path fill="#201F39" d="M225.12 1149.917c-.07 0-.11-.012-.119-.042-.057-.19 1.87-1.238 4.412-1.626.758-.12 1.474-.166 2.106-.166 1.482 0 2.495.254 2.48.396-.013.23-2.044.158-4.512.55-2.144.326-3.902.888-4.367.888M228.914 1147c-.966 0-1.828-.122-2.482-.285-.931-.231-1.456-.504-1.431-.572.006-.02.039-.029.1-.029.181 0 .601.08 1.193.16.594.08 1.358.16 2.228.16.493 0 1.021-.026 1.57-.092 2.628-.276 4.559-1.342 4.866-1.342.02 0 .033.005.04.015.04.062-.407.444-1.256.876-.847.431-2.117.872-3.579 1.04-.43.048-.848.069-1.25.069M196.95 1140c-.292 0-1.942-.81-3.281-2.438-1.46-1.75-1.797-3.54-1.63-3.56.004-.002.007-.002.009-.002.2 0 .8 1.59 2.154 3.203 1.352 1.656 2.902 2.634 2.792 2.782-.005.01-.02.015-.044.015M195.944 1142c-.1 0-.243-.357-.726-.705-.483-.357-1.305-.789-2.154-1.3-1.717-1.005-3.14-1.789-3.06-1.964.008-.02.041-.031.095-.031.376 0 1.776.51 3.315 1.407.87.529 1.64 1.007 2.136 1.536.502.537.492 1.055.403 1.055-.004.002-.006.002-.01.002"/>
        <g>
            <path fill="#4D4279" d="M469.814 589h-62.628c-3.416 0-6.186 2.73-6.186 6.107v33.47c0 3.377 2.77 6.109 6.186 6.109h3.371V650l15.482-15.314h43.775c3.416 0 6.186-2.732 6.186-6.109v-33.47c0-3.377-2.77-6.107-6.186-6.107"/>
            <path fill="#FFFFFE" d="M416.073 622h14.852c1.145 0 2.075.897 2.075 2.001 0 1.105-.93 1.999-2.075 1.999h-14.852c-1.146 0-2.073-.894-2.073-1.999 0-1.104.927-2.001 2.073-2.001M416.039 612h26.92c1.127 0 2.041.897 2.041 2.001 0 1.105-.914 1.999-2.04 1.999h-26.921c-1.127 0-2.039-.894-2.039-1.999 0-1.104.912-2.001 2.039-2.001M416.065 602h46.868c1.141 0 2.067.896 2.067 2s-.926 2-2.067 2h-46.868c-1.141 0-2.065-.896-2.065-2s.924-2 2.065-2"/>
        </g>
        <g>
            <path fill="#755D98" d="M48.186 856h62.628c3.416 0 6.186 2.73 6.186 6.107v33.47c0 3.377-2.77 6.109-6.186 6.109h-3.371V917L91.96 901.686H48.186c-3.416 0-6.186-2.732-6.186-6.109v-33.47c0-3.377 2.77-6.107 6.186-6.107"/>
            <path fill="#FFFFFE" d="M101.927 889H87.075c-1.145 0-2.075.897-2.075 2.001 0 1.105.93 1.999 2.075 1.999h14.852c1.146 0 2.073-.894 2.073-1.999 0-1.104-.927-2.001-2.073-2.001M101.961 879h-26.92c-1.127 0-2.041.897-2.041 2.001 0 1.105.914 1.999 2.04 1.999h26.921c1.127 0 2.039-.894 2.039-1.999 0-1.104-.912-2.001-2.039-2.001M101.935 869H55.067c-1.141 0-2.067.896-2.067 2s.926 2 2.067 2h46.868c1.141 0 2.065-.896 2.065-2s-.924-2-2.065-2"/>
        </g>
        <g fill="#BEBFC7" fill-rule="nonzero" transform="translate(101 116)">
            <circle cx="140" cy="380" r="10"/>
            <circle cx="6" cy="306" r="6"/>
            <circle cx="45" cy="235" r="15"/>
            <circle cx="96" cy="6" r="6"/>
        </g>
    </g>
</svg>
