<svg xmlns="http://www.w3.org/2000/svg" width="136" height="145" viewBox="0 0 136 145">
    <g fill="none" fill-rule="evenodd">
        <path fill="#ED9E95" d="M4 138c0 3.866 29.55 7 66 7s66-3.134 66-7-29.55-7-66-7-66 3.134-66 7"/>
        <path fill="#392D6A" d="M17.8 127.907S7.056 131.814 1.286 132c0 0-6.766-.558 10.744-8 0 0 1.866 1.656 5.97 1.302l-.2 2.605M47.437 135.876s-11.351 1.872-17.012.785c0 0-7.362-1.499 11.382-5.723 0 0 2.793.314 7.193-.938l-1.563 5.876"/>
        <path fill="#C67451" d="M49 95.324s-10.506 12.027-8.014 20.765C43.478 124.827 49 130.651 49 130.651s-3.988 1.942-7.631 1.166c0 0-11.536-9.596-10.272-31.982 0 0 5.986-5.846 13.304-6.835l1.57 2.507L49 95.324"/>
        <path fill="#3F3C7B" d="M46.611 95.057s5.439-1.35 17.29 3.083c11.85 4.432 40.007 12.143 43.025-11.18 0 0-.87-10.6 1.074-16.96L93.041 80.215s-15.735 3.855-28.363 0c-12.628-3.854-17.096-3.662-20.399-2.506 0 0-4.08 8.867 2.332 17.348"/>
        <path fill="#755D98" d="M83.31 6.315s-3.138 10.816 0 17.233c0 0-.928 14.665 14.224 12.282 0 0-1.663 6.966-4.25 7.332 0 0 20.697 6.233 29.567-9.533 0 0 2.586-5.499 0-9.348-2.588-3.85-5.914-3.3-5.914-3.3s1.663-8.066-2.772-13.383C109.73 2.282 88.303-5.783 83.31 6.315"/>
        <path fill="#E7895A" d="M85.583 9.962s-7.473 19.536 2.206 24.221c6.064 2.935 9.189 1.468 9.189 1.468s1.286 6.054-1.287 11.008c0 0 4.044 4.404 8.454-2.752 0 0-2.388-6.789-1.653-11.743 0 0 1.286-1.835 1.653-4.404 0 0 2.574-4.22 1.103-6.605-1.47-2.385-4.227-1.284-4.594.55 0 0-10.109 1.468-15.071-11.743"/>
        <path fill="#E7895A" d="M84.66 20.83s-1.256 2.434-2.93 3.407c-1.673.974-.104 3.115 1.046 2.92l1.15-.195.734-6.132"/>
        <path fill="#B86F4F" d="M90.146 19.925c-.594.469-1.081.81-1.65.985-.28.091-.578.158-.91.193-.333.043-.686.049-1.097.101.292.244.655.415 1.06.486.403.088.848.043 1.259-.08.825-.272 1.386-.98 1.338-1.685M88.8 27.17c-.246.503-.432.861-.74 1.022-.145.093-.357.164-.623.248-.275.07-.585.134-.948.25.301.171.656.267 1.046.289.39.017.835-.057 1.197-.267.353-.218.523-.54.5-.816-.013-.277-.15-.533-.432-.726"/>
        <path fill="#272240" d="M87 82l-30.182-3.293L47 48h2.86l8.73 27.621L87 78.953V82"/>
        <path fill="#3F3C7B" d="M104.807 43s7.567.779 7.179 8.373c-.389 7.595-2.523 11.88-2.523 11.88s-4.656-3.7-11.057-3.7c0 0-2.328 15.189-5.82 20.447 0 0 .776-10.127 0-15.384 0 0-6.014-2.922-4.268-8.374 1.746-5.453 7.566-10.321 7.566-10.321s4.316 4.29 8.923-2.921"/>
        <path fill="#E7895A" d="M88.269 89.389S100.965 96.297 110 63.672c0 0-4.125-4.03-11.195-3.646 0 0-3.143 16.12-5.893 20.15-2.75 4.03-12.177 2.111-13.356-.959-1.179-3.07.982-7.868-2.554-9.596-3.535-1.727-7.07-2.11-7.856-.192-.786 1.92 1.767 4.616 3.732 5.571 1.964.955 1.178 5.56 2.75 7.096 1.57 1.536 8.623 6.756 12.64 7.293M44 93.221s-9.364 1.033-16.654 10.468c-7.29 9.433-9.59 21.23-9.59 21.23s-4.03.58-5.756-1.354c0 0-.192-34.144 30.692-43.565 0 0-1.987 5.89 1.308 13.221"/>
        <path fill="#F9E2BA" d="M134.11 77.19s5.453-25.455-10.631-28.928c-16.085-3.472-17.305 28.684-17.305 28.684s4.755 34.498-39.803 23.11c0 0-11.507-3.217-13.825 6.704-2.32 9.922 3.092 15.37 9.857 17.12 6.764 1.75 36.914 4.28 44.84 2.529 0 0 14.69-.583 26.866-49.219"/>
        <path fill="#392F68" d="M112 138h-7.008L99 126h6.5l6.5 12M56 138h7.013L70 124.664 63.958 124 56 138"/>
    </g>
</svg>
