<svg xmlns="http://www.w3.org/2000/svg" width="36" height="36" viewBox="0 0 36 36">
    <path fill="#0077B7" fill-rule="nonzero" d="M32.744 0H3.256A3.257 3.257 0 0 0 0 3.256v29.487A3.257 3.257 0 0 0 3.256 36h29.487A3.257 3.257 0 0 0 36 32.743V3.256A3.257 3.257 0 0 0 32.744 0zM11.14 31.085a.948.948 0 0 1-.948.947H6.158a.948.948 0 0 1-.948-.947v-16.91c0-.524.425-.949.948-.949h4.034c.524 0 .948.425.948.948v16.91zM8.175 11.632a3.832 3.832 0 1 1 0-7.665 3.832 3.832 0 0 1 0 7.665zm24.047 19.53c0 .48-.39.87-.871.87h-4.33a.871.871 0 0 1-.87-.87v-7.933c0-1.183.346-5.185-3.093-5.185-2.668 0-3.209 2.739-3.318 3.968v9.15c0 .48-.39.87-.871.87h-4.187a.871.871 0 0 1-.871-.87V14.097c0-.481.39-.872.871-.872h4.187c.481 0 .871.39.871.872v1.475c.99-1.484 2.46-2.63 5.59-2.63 6.932 0 6.892 6.476 6.892 10.034v8.184z"/>
</svg>
