<svg xmlns="http://www.w3.org/2000/svg" xmlns:xlink="http://www.w3.org/1999/xlink" width="453" height="882" viewBox="0 0 453 882">
    <defs>
        <path id="a" d="M0 0h360v872H0z"/>
        <radialGradient id="b" r="79.212%" fx="50%" fy="50%" gradientTransform="scale(1 .68463) rotate(88.879 .383 .615)">
            <stop offset="0%" stop-color="#DADFEF"/>
            <stop offset="66.7%" stop-color="#9DA8D3"/>
            <stop offset="100%" stop-color="#6F7FBA"/>
        </radialGradient>
    </defs>
    <g fill="none" fill-rule="evenodd">
        <g transform="translate(93 10)">
            <mask id="c" fill="#fff">
                <use xlink:href="#a"/>
            </mask>
            <path fill="url(#b)" fill-rule="nonzero" d="M217.322 50.054C250.32 19.38 298.87 0 353 0c99.411 0 180 65.366 180 146 0 35.963-16.03 68.888-42.611 94.332C555.274 290.932 597 369.842 597 458.5c0 85.834-39.111 162.534-100.485 213.249C502.634 688.52 506 706.829 506 726c0 80.634-59.546 146-133 146-73.454 0-133-65.366-133-146 0-.967.009-1.931.026-2.894C126.57 688.646 44 583.216 44 458.5c0-20.163 2.158-39.822 6.256-58.759C18.906 362.716 0 314.816 0 262.5 0 145.14 95.14 50 212.5 50c1.612 0 3.22.018 4.822.054z" mask="url(#c)"/>
        </g>
        <g fill-rule="nonzero">
            <circle cx="313" cy="156" r="4" fill="#E6E7ED"/>
            <circle cx="400" cy="117" r="5" fill="#D1D2DD"/>
            <circle cx="73" cy="215" r="5" fill="#BEBFC7"/>
            <circle cx="9" cy="132" r="9" fill="#BEBFC7"/>
            <circle cx="163" cy="5" r="5" fill="#BEBFC7"/>
            <circle cx="269" cy="23" r="15" fill="#BEBFC7"/>
        </g>
        <path fill="#ED9E95" d="M420.26 585.92c0 4.763-50.492 8.625-112.776 8.625-62.283 0-112.774-3.862-112.774-8.625 0-4.764 50.49-8.625 112.774-8.625s112.776 3.86 112.776 8.625M443.526 580.058c0 .584-5.266 1.057-11.763 1.057-6.496 0-11.763-.473-11.763-1.057S425.267 579 431.763 579c6.497 0 11.763.474 11.763 1.058M428.74 596.35c0 .997-7.329 1.805-16.37 1.805S396 597.347 396 596.35c0-.997 7.329-1.805 16.37-1.805s16.37.808 16.37 1.805"/>
        <path fill="#C23D30" d="M202.955 530.177h45.97l17.631-9.795h-37.321l-26.28 9.795"/>
        <path fill="#DE4E34" d="M202.955 471.009v59.168h6.129v-2.284l20.151-7.511v-57.298s-12.393-14.46-26.28 7.925"/>
        <path fill="#C23D30" d="M209.084 469.975v57.918l26.28-8.544V462.05s-12.392-14.46-26.28 7.925"/>
        <path fill="#DE4E34" d="M248.925 537.904h-45.97v-7.727h45.97z"/>
        <path fill="#C23D30" d="M266.556 520.382v6.313l-17.631 11.209v-7.727l17.631-9.795"/>
        <path fill="#272240" d="M266.556 559.816h-1.948v-33.012h1.948z"/>
        <path fill="#392F68" d="M229.686 522.124c9.69 7.255 32.939 8.126 32.939 8.126s-3.047 23.797 1.161 38.743c0 0 2.467 2.322 6.529.726 0 0 1.059-10.556 3.432-18.991 0 0 4.72-19.754 1.168-30.346-2.122-6.327-12.89-3.89-13.596-7.255 0 0-17.981-7.461-28.997-16.602 0 0-1.185-.666-2.636-1.246 0 0-12.915 15.236 0 26.845z"/>
        <path fill="#4C427E" d="M215 524c9.69 7.255 37.625 6.25 37.625 6.25s-3.047 23.797 1.161 38.743c0 0 2.467 2.322 6.529.726 0 0 1.059-10.556 3.432-18.991 0 0 4.72-19.754 1.168-30.346-2.122-6.327-12.89-3.89-13.596-7.255 0 0-19.303-1.986-30.319-11.127 2 0 .137-6.141-1.314-6.721 0 0-9.017 8.217-8.686 17.848.114 3.313.694 7.901 4 10.873z"/>
        <path fill="#392D6A" d="M246.401 423.728c1.896 3.353 3.37 9.872-.488 21-.937 3.603-3.774 6.463-8.512 8.58l-9.654-2.924-3.911 1.166c5.346-.6 5.337-.756-.028-.471-6.62.352-12.387-4.483-14.772-14.67-1.478-6.308-.173-12.303 4.115-16.973 2.638-2.872 5.619-5.95 12.108-6.196 17.039-.647 17.383 7.383 17.383 7.383s1.672-.588 3.76 3.105z"/>
        <path fill="#E7895A" d="M245.649 430.997s5.31 23.229-11.234 24.967c-16.546 1.739-18.882-9.785-18.321-10.914 0 0-5.843-3.096-1.725-8.538 1.993-2.856 5.352 1.562 5.352 1.562s13.641 2.457 22.598-10.467c0 0 1.19 2.442 3.33 3.39"/>
        <path fill="#B86F4F" d="M239.91 444.108c1.071 1.69-.183 3.347-1.292 3.321-1.11-.025-1.483-.51-1.483-.51.745-1.115 1.175-1.965 1.29-2.55.215-1.094.279-2.762.192-5.006 0 0 .222 3.055 1.293 4.745zM245.246 440.594c-.38.278-.68.54-.962.762-.284.214-.537.377-.727.408-.174.05-.38.045-.706-.072-.153-.06-.323-.144-.508-.218-.181-.09-.365-.187-.601-.262.043.466.221.895.559 1.252.314.365.946.629 1.558.474.598-.172.969-.59 1.173-1.005.208-.418.297-.87.214-1.34M235.806 440.431c-1.178.29-2.129.378-2.954.063-.418-.151-.81-.406-1.233-.701-.199-.158-.404-.331-.627-.498-.21-.182-.422-.372-.686-.546.03.303.112.592.196.886.124.27.25.554.428.808.358.51.877.94 1.51 1.193.644.224 1.366.216 1.967-.023.6-.23 1.106-.638 1.399-1.182M239.236 449.363c-1.002.239-1.792.484-2.469.425a2.307 2.307 0 0 1-1.006-.277c-.362-.167-.71-.436-1.172-.705.024.518.2 1.032.575 1.44.344.436.935.713 1.522.754a2.594 2.594 0 0 0 1.582-.45c.434-.296.788-.687.968-1.187"/>
        <path fill="#E7895A" d="M232.473 454.682s-1.286 4.4 0 6.914c1.287 2.514-2.727 6.128-6.943 2.514-4.213-3.614-3.612-5.972-3.612-5.972s1.09-2.027.845-5.57c0 0 4.54 1.413 9.71 2.114"/>
        <path fill="#CFAD4A" d="M243.338 481.204c-3.483-19.59-10.797-19.299-10.797-19.299s.141 3.274-3.165 3.596c0 0 6.385 31.585 12.624 34.778.95.486 1.396.901 1.338 1.246 10.441 6.638 15.995 9.797 16.662 9.475 1-.482 4.016-1.823 3-4s-16.179-6.207-19.662-25.796z"/>
        <path fill="#FEF2F1" d="M239 501v-7c-.01-13.464-.74-22.13-2.191-26-2.177-5.804-4.268-6.095-4.268-6.095l-7.631-3.193s-4.789-1.123-8.126.89c-2.786 3.993-5.047 10.972-6.784 20.938-.787 4.516.062 16.97 0 17.993-.088 1.438.579 4.386 2 8.844 7.497-2.548 13.401-3.243 17.712-2.085"/>
        <path fill="#E7895A" d="M262.325 506.908s4.939-.013 6.342.382c1.405.395 3.523 3.42 5.6 4.597 2.075 1.176-1.286 2.278-4.687 1.089-3.4-1.189-5.72-.567-9.154-1.982 0 0 2.173-1.459 1.9-4.086"/>
        <path fill="#3F3C7B" d="M269.146 570.078s-1.841 1.781 2.077 3.74c3.918 1.959 10.66 3.674 9.467 5.333-1.191 1.659-9.794-.726-12.406-1.016-2.612-.29-5.374-1.489-5.081-3.23.293-1.74.583-5.912.583-5.912s1.432 1.807 5.36 1.085"/>
        <path fill="#3F3C7B" d="M259.146 570.078s-1.841 1.781 2.077 3.74c3.918 1.959 10.66 3.674 9.467 5.333-1.191 1.659-9.794-.726-12.406-1.016-2.612-.29-5.374-1.489-5.081-3.23.293-1.74.583-5.912.583-5.912s1.432 1.807 5.36 1.085"/>
        <path fill="#E7895A" d="M246.676 506.629s4.426-.218 6.095 0c1.667.218 4.643 2.757 6.384 3.773 1.741 1.015 1.306 2.467.435 2.467 0 0-2.358.943-6.076 0-3.718-.944-8.144-3.483-8.144-3.483s2.176-.653 1.306-2.757"/>
        <path fill="#CFAD4A" d="M246.872 505.292c-6.052-4.064-26.26-10.25-26.751-16.292-.63-7.74 1.741-21.727 0-25.499-1.741-3.773-3.337-3.899-3.337-3.899s-5.659-.019-6.53 7.091c-.87 7.11-1.886 28.28 6.53 33.504C225.2 505.42 245 510.95 245.37 511.386c.247.29.682-.629 1.306-2.757 1.264-1.464 1.329-2.576.196-3.337z"/>
        <path fill="#272240" d="M303 485.839l-5 26.106-30.252 1.775L272 485.839h37.408"/>
        <path fill="#272240" d="M267.748 513.72h-20.876v-1.343h21.369l-.493 1.343M248.925 583.751h-1.946v-45.847h1.946zM204.902 583.751h-1.947v-45.847h1.947zM235.729 560.104h-1.947v-22.2h1.947z"/>
        <path fill="#C23D30" d="M412.045 535.177h-45.97l-17.631-9.795h37.321l26.28 9.795"/>
        <path fill="#DE4E34" d="M412.045 476.009v59.168h-6.129v-2.284l-20.151-7.511v-57.298s12.393-14.46 26.28 7.925"/>
        <path fill="#C23D30" d="M405.916 474.975v57.918l-26.28-8.544V467.05s12.392-14.46 26.28 7.925"/>
        <path fill="#DE4E34" d="M366.075 542.904h45.97v-7.727h-45.97z"/>
        <path fill="#C23D30" d="M348.444 525.382v6.313l17.631 11.209v-7.727l-17.631-9.795"/>
        <path fill="#272240" d="M348.444 564.816h1.948v-33.012h-1.948z"/>
        <path fill="#EEC24D" d="M382.282 503.472s-18.166 10.302-28.178 11.318-7.941 19.734-8.251 23.072c-.31 3.337-2.487 24.813-2.487 24.813s2.612 2.032 5.078.87c0 0 12.996-32.537 15.237-45.418 0 0 20.266-8.101 28.997-16.602 0 0-5.579 2.092-10.396 1.947"/>
        <path fill="#CFAD4A" d="M395.314 500.279s12.915 15.236 0 26.845c-9.69 7.255-32.939 8.126-32.939 8.126s3.047 23.797-1.161 38.743c0 0-2.467 2.322-6.529.726 0 0-1.059-10.556-3.432-18.991 0 0 10.542-28.604 12.428-37.601 0 0 17.981-7.461 28.997-16.602 0 0 1.185-.666 2.636-1.246"/>
        <path fill="#755D98" d="M367.163 427.29s-17.703 5.225-5.659 26.845c2.322 5.079-1.441 8.271.731 15.237 2.171 6.964 10.443 22.346 31.628 13.494 21.186-8.851 20.025-22.781 16.687-28.731-3.337-5.949-3.773-6.965-3.193-17.412.581-10.448-8.006-27.426-24.898-25.104-16.892 2.322-15.296 15.671-15.296 15.671"/>
        <path fill="#E7895A" d="M366.003 438.028s-1.161 23.798 14.945 22.637c16.108-1.161 16.398-12.915 15.672-13.93 0 0 5.063-4.063.21-8.707-2.387-2.467-4.853 2.467-4.853 2.467s-12.624 4.789-23.363-6.384c0 0-.725 2.612-2.611 3.917"/>
        <path fill="#E7895A" d="M382.459 460.52s.93 4.063 0 6.385 1.972 5.659 5.02 2.322c3.046-3.338 2.611-5.515 2.611-5.515s-.788-1.872-.611-5.144c0 0-3.282 1.305-7.02 1.952"/>
        <path fill="#272240" d="M346.123 505.938s22.056-.145 25.539-19.734c3.483-19.59 10.797-19.299 10.797-19.299s-.141 3.274 3.165 3.596c0 0-8.448 30.358-14.687 33.551-6.241 3.192-18.429 6.24-23.653 6.24 0 0-2.177-2.177-1.161-4.354"/>
        <path fill="#392F68" d="M382.282 503.472s.006-11.506-1.914-14.874c-1.92-3.369-4.353-7.473-2.177-13.277 2.177-5.804 4.268-8.416 4.268-8.416l7.631-3.193s4.789-1.123 8.126.89l-2.902 35.677s-6.619 3.773-13.032 3.193"/>
        <path fill="#FFFFFE" d="M245.7 514.428v3.86c0 1.371 28.782 2.482 64.285 2.482 35.505 0 64.285-1.111 64.285-2.482v-3.86H245.7"/>
        <path fill="#392D6A" d="M374.27 514.428c0 1.37-28.78 2.482-64.285 2.482-35.503 0-64.285-1.112-64.285-2.482 0-1.371 28.782-2.483 64.285-2.483 35.505 0 64.285 1.112 64.285 2.483"/>
        <path fill="#E7895A" d="M346.123 505.938s-4.861-.87-6.312-.725c-1.452.145-4.063 2.757-6.312 3.555-2.249.798.87 2.467 4.426 1.886 3.554-.58 5.731.435 9.359-.362 0 0-1.887-1.814-1.161-4.354"/>
        <path fill="#272240" d="M283.431 584.15v2.801c0 .994 11.946 1.8 26.683 1.8s26.683-.806 26.683-1.8v-2.801h-53.366M306.872 486.839l9.794 26.881h31.866l-9.882-26.881h-31.778"/>
        <path fill="#392D6A" d="M336.797 584.151c0 .994-11.946 1.8-26.683 1.8s-26.683-.806-26.683-1.8c0-.995 11.946-1.801 26.683-1.801s26.683.806 26.683 1.801"/>
        <path fill="#FFFFFE" d="M307.738 583.135h4.751V520.77h-4.751z"/>
        <path fill="#3F3C7B" d="M343.366 562.675s-4.823 7.328-8.252 9.722c-3.429 2.394-2.268 6.965 2.375 4.136 4.644-2.83 7.255-5.998 8.996-6.482 1.742-.484 1.959-6.506 1.959-6.506s-3.3.291-5.078-.87M355.854 575.078s1.841 1.781-2.077 3.74c-3.918 1.959-10.66 3.674-9.467 5.333 1.191 1.659 9.794-.726 12.406-1.016 2.612-.29 5.374-1.489 5.081-3.23-.293-1.74-.583-5.912-.583-5.912s-1.432 1.807-5.36 1.085"/>
        <path fill="#272240" d="M348.532 513.72h20.876v-1.343h-21.369l.493 1.343"/>
        <path fill="#B86F4F" d="M373.381 446.046s.312 3.047-.449 4.897c-.762 1.85.761 3.265 1.849 3.047 1.089-.218 1.372-.761 1.372-.761l-2.772-7.183"/>
        <path fill="#3F3C7B" d="M368.324 513.629s26.796-10.962 27.425-18.701c.63-7.74-2.611-22.655-.87-26.427 1.741-3.773 3.337-3.899 3.337-3.899s5.659-.019 6.53 7.091c.87 7.11.58 28.006-7.836 33.229-8.416 5.224-27.28 11.464-27.28 11.464s-2.321-.435-1.306-2.757"/>
        <path fill="#E7895A" d="M368.324 513.629s-4.426-.218-6.095 0c-1.667.218-4.643 2.757-6.384 3.773-1.741 1.015-1.306 2.467-.435 2.467 0 0 2.358.943 6.076 0 3.718-.944 8.144-3.483 8.144-3.483s-2.176-.653-1.306-2.757"/>
        <path fill="#B86F4F" d="M368.067 447.409c.423.208.763.415 1.079.584.317.161.595.278.787.275.18.02.383-.022.683-.193.14-.086.293-.198.462-.303.163-.12.327-.248.547-.363.038.467-.063.92-.333 1.33-.246.414-.823.784-1.452.738a1.882 1.882 0 0 1-1.33-.786c-.278-.376-.444-.805-.443-1.282M377.335 445.61c1.21.08 2.162.002 2.92-.451.385-.222.728-.541 1.092-.905.169-.19.341-.396.532-.599.175-.216.35-.44.58-.657.024.304-.007.602-.039.907-.075.288-.15.589-.281.87a3.384 3.384 0 0 1-1.28 1.437c-.595.332-1.308.45-1.941.319-.631-.122-1.2-.437-1.583-.921M377.335 455.514c.827-.614 1.523-1.062 1.913-1.618.207-.266.348-.565.434-.949.105-.384.123-.824.214-1.351.381.352.662.817.733 1.366.113.544-.055 1.175-.401 1.651-.361.47-.853.784-1.361.923-.506.142-1.033.161-1.532-.022"/>
        <path fill="#272240" d="M366.075 588.751h1.946v-45.847h-1.946zM410.098 588.751h1.947v-45.847h-1.947zM379.271 565.104h1.947v-22.2h-1.947z"/>
        <g>
            <path fill="#C7CADC" d="M302.507 271.175h-79.874c-3.264 0-5.909-3.828-5.909-8.551v-75.788c0-4.722 2.645-8.551 5.909-8.551h79.874c3.263 0 5.909 3.829 5.909 8.551v75.788c0 4.723-2.646 8.551-5.909 8.551"/>
            <path fill="#755D98" d="M297.647 278.175h-79.873c-3.264 0-5.909-4.116-5.909-9.195v-81.5c0-5.077 2.645-9.195 5.909-9.195h79.873c3.264 0 5.909 4.118 5.909 9.195v81.5c0 5.079-2.645 9.195-5.909 9.195"/>
            <path fill="#FFFFFE" d="M221.295 271.448h72.191v-84.281h-72.191z"/>
            <path fill="#97A0BC" d="M221.295 271.447h1.391v-84.28h-1.391z"/>
            <path fill="#9BA5BA" d="M293.222 284.899l-.035-.021h.035v.021"/>
            <path fill="#DDDEE8" d="M282.3 212.523h-51.732c-1.06 0-1.92-.767-1.92-1.712v-13.864c0-.945.86-1.712 1.92-1.712H282.3c1.061 0 1.919.767 1.919 1.712v13.864c0 .945-.858 1.712-1.92 1.712M262.243 221.203h-32.194a1.401 1.401 0 0 1 0-2.801h32.194a1.4 1.4 0 1 1 0 2.801M261.58 227.459h-30.888c-1.128 0-2.044-.628-2.044-1.401 0-.774.916-1.401 2.044-1.401h30.888c1.13 0 2.045.627 2.045 1.401 0 .773-.915 1.401-2.045 1.401M261.58 234.017h-30.888c-1.128 0-2.044-.627-2.044-1.401s.916-1.401 2.044-1.401h30.888c1.13 0 2.045.627 2.045 1.401s-.915 1.401-2.045 1.401M261.58 241.017h-30.888c-1.128 0-2.044-.627-2.044-1.401s.916-1.401 2.044-1.401h30.888c1.13 0 2.045.627 2.045 1.401s-.915 1.401-2.045 1.401"/>
            <path fill="#6A9AC5" d="M242.816 204.016a5.323 5.323 0 1 1-10.647 0 5.323 5.323 0 0 1 10.647 0"/>
            <path fill="#707FAC" d="M275.25 202.324h-26.57c-.21 0-.381-.145-.381-.325 0-.179.171-.324.382-.324h26.568c.211 0 .381.145.381.324 0 .18-.17.325-.38.325M275.25 206.358h-26.57c-.21 0-.381-.145-.381-.324 0-.18.171-.325.382-.325h26.568c.211 0 .381.145.381.325 0 .179-.17.324-.38.324"/>
            <g>
                <path fill="#ED9E95" d="M400.865 311.175h-115.59a8.55 8.55 0 0 1-8.551-8.551v-75.788a8.551 8.551 0 0 1 8.551-8.551h115.59a8.552 8.552 0 0 1 8.551 8.551v75.788a8.551 8.551 0 0 1-8.551 8.551"/>
                <path fill="#C54639" d="M396.005 311.175H280.416a8.55 8.55 0 0 1-8.551-8.551v-75.788a8.551 8.551 0 0 1 8.551-8.551h115.589a8.551 8.551 0 0 1 8.551 8.551v75.788a8.55 8.55 0 0 1-8.551 8.551"/>
                <path fill="#FFFFFE" d="M281.295 299.448h114.191v-72.281H281.295z"/>
                <path fill="#97A0BC" d="M281.295 299.448h1.391v-72.281h-1.391z"/>
                <path fill="#9BA5BA" d="M353.222 324.899l-.035-.021h.035v.021"/>
                <path fill="#DDDEE8" d="M336.507 252.523h-46.146a1.713 1.713 0 0 1-1.713-1.712v-13.864c0-.945.767-1.712 1.713-1.712h46.146c.947 0 1.712.767 1.712 1.712v13.864c0 .945-.765 1.712-1.712 1.712M322.243 261.203h-32.194a1.401 1.401 0 0 1 0-2.801h32.194a1.4 1.4 0 1 1 0 2.801M311.223 267.459h-21.174a1.402 1.402 0 0 1 0-2.802h21.174a1.4 1.4 0 1 1 0 2.802M311.223 274.017h-21.174a1.401 1.401 0 0 1 0-2.802h21.174a1.4 1.4 0 1 1 0 2.802M386.642 291.075h-39.487a2.013 2.013 0 0 1-2.012-2.012v-51.816c0-1.111.902-2.012 2.012-2.012h39.487c1.112 0 2.012.901 2.012 2.012v51.816c0 1.111-.9 2.012-2.012 2.012"/>
                <path fill="#6A9AC5" d="M302.816 244.016a5.323 5.323 0 1 1-10.647 0 5.323 5.323 0 0 1 10.647 0"/>
                <path fill="#707FAC" d="M331.305 242.324h-22.68a.325.325 0 1 1 0-.649h22.68a.324.324 0 1 1 0 .649M331.305 246.358h-22.68a.325.325 0 1 1 0-.649h22.68a.324.324 0 1 1 0 .649"/>
                <path fill="#FFFFFE" d="M352.153 275.029h17.206a1.107 1.107 0 0 0 0-2.213h-17.206a1.106 1.106 0 1 0 0 2.213M352.153 281.583h28.683a1.106 1.106 0 1 0 0-2.213h-28.683a1.107 1.107 0 0 0 0 2.213"/>
                <path fill="#444287" d="M354.397 251.708a5.865 5.865 0 0 0 5.865 5.866 5.865 5.865 0 1 0 0-11.731 5.865 5.865 0 0 0-5.865 5.865"/>
                <path fill="#FFFFFE" d="M350.963 261.762v1.852a2.554 2.554 0 0 0 2.557 2.553h25.898a2.554 2.554 0 0 0 2.557-2.553v-1.852l-9.237-9.236-6.27 6.274-6.273-6.274-9.232 9.236"/>
            </g>
            <g>
                <path fill="#6D60A5" d="M370.865 341.175h-115.59a8.55 8.55 0 0 1-8.551-8.551v-75.788a8.551 8.551 0 0 1 8.551-8.551h115.59a8.552 8.552 0 0 1 8.551 8.551v75.788a8.551 8.551 0 0 1-8.551 8.551"/>
                <path fill="#392D6A" d="M366.005 341.175H250.416a8.55 8.55 0 0 1-8.551-8.551v-75.788a8.551 8.551 0 0 1 8.551-8.551h115.589a8.551 8.551 0 0 1 8.551 8.551v75.788a8.55 8.55 0 0 1-8.551 8.551"/>
                <path fill="#FFFFFE" d="M251.295 329.448h114.191v-72.281H251.295z"/>
                <path fill="#97A0BC" d="M251.295 329.448h1.391v-72.281h-1.391z"/>
                <path fill="#9BA5BA" d="M323.222 354.899l-.035-.021h.035v.021"/>
                <path fill="#DDDEE8" d="M306.507 282.523h-46.146a1.713 1.713 0 0 1-1.713-1.712v-13.864c0-.945.767-1.712 1.713-1.712h46.146c.947 0 1.712.767 1.712 1.712v13.864c0 .945-.765 1.712-1.712 1.712M292.243 291.203h-32.194a1.401 1.401 0 0 1 0-2.801h32.194a1.4 1.4 0 1 1 0 2.801M281.223 297.459h-21.174a1.402 1.402 0 0 1 0-2.802h21.174a1.4 1.4 0 1 1 0 2.802M281.223 304.017h-21.174a1.401 1.401 0 0 1 0-2.802h21.174a1.4 1.4 0 1 1 0 2.802M356.642 321.075h-39.487a2.013 2.013 0 0 1-2.012-2.012v-51.816c0-1.111.902-2.012 2.012-2.012h39.487c1.112 0 2.012.901 2.012 2.012v51.816c0 1.111-.9 2.012-2.012 2.012"/>
                <path fill="#6A9AC5" d="M272.816 274.016a5.323 5.323 0 1 1-10.647 0 5.323 5.323 0 0 1 10.647 0"/>
                <path fill="#707FAC" d="M301.305 272.324h-22.68a.325.325 0 1 1 0-.649h22.68a.324.324 0 1 1 0 .649M301.305 276.358h-22.68a.325.325 0 1 1 0-.649h22.68a.324.324 0 1 1 0 .649"/>
                <path fill="#FFFFFE" d="M322.153 305.029h17.206a1.107 1.107 0 0 0 0-2.213h-17.206a1.106 1.106 0 1 0 0 2.213M322.153 311.583h28.683a1.106 1.106 0 1 0 0-2.213h-28.683a1.107 1.107 0 0 0 0 2.213"/>
                <path fill="#6D9BC6" d="M320.963 275.115v18.499a2.554 2.554 0 0 0 2.557 2.553h25.898a2.554 2.554 0 0 0 2.557-2.553v-18.499a2.554 2.554 0 0 0-2.557-2.554H323.52a2.554 2.554 0 0 0-2.557 2.554"/>
                <path fill="#444287" d="M324.397 281.708a5.865 5.865 0 0 0 5.865 5.866 5.865 5.865 0 1 0 0-11.731 5.865 5.865 0 0 0-5.865 5.865"/>
                <path fill="#FFFFFE" d="M320.963 291.762v1.852a2.554 2.554 0 0 0 2.557 2.553h25.898a2.554 2.554 0 0 0 2.557-2.553v-1.852l-9.237-9.236-6.27 6.274-6.273-6.274-9.232 9.236"/>
            </g>
        </g>
    </g>
</svg>
