<svg xmlns="http://www.w3.org/2000/svg" width="36" height="36" viewBox="0 0 36 36">
    <g fill="none" fill-rule="evenodd">
        <rect width="35.979" height="35.979" fill="#50ABF1" rx="4"/>
        <path fill="#FFF" d="M4.767 26.67a15.408 15.408 0 0 0 8.28 2.398c8.553 0 15.487-6.935 15.487-15.488 0-.214-.004-.426-.013-.637.31-.244 2.223-1.777 2.692-2.763 0 0-1.554.646-3.074.798h-.01l.008-.005c.14-.094 2.1-1.427 2.365-3.016 0 0-1.1.586-2.638 1.1a17.65 17.65 0 0 1-.797.245 5.42 5.42 0 0 0-3.967-1.72 5.433 5.433 0 0 0-5.294 6.663c-.42-.017-6.808-.375-11.154-5.639 0 0-2.598 3.546 1.548 7.193 0 0-1.26-.05-2.348-.7 0 0-.399 4.296 4.296 5.394 0 0-.924.35-2.398.1 0 0 .824 3.472 4.995 3.796 0 0-3.298 2.98-7.98 2.28l.002.001z"/>
    </g>
</svg>
